<svg width="76" height="69" viewBox="0 0 76 69" fill="none" xmlns="http://www.w3.org/2000/svg">
<g filter="url(#filter0_d)">
<path d="M9.00006 45V25.5C9.00006 23.8431 10.3432 22.5 12.0001 22.5H34.7626C36.4194 22.5 37.7626 21.1569 37.7626 19.5V12.9502C37.7626 10.32 40.9063 8.96305 42.8202 10.767L65.7235 32.3542C66.9651 33.5245 66.982 35.4932 65.7608 36.6847L42.8575 59.0293C40.9572 60.8833 37.7626 59.5368 37.7626 56.882V51C37.7626 49.3431 36.4194 48 34.7626 48H12.0001C10.3432 48 9.00006 46.6569 9.00006 45Z" fill="#6FCF97"/>
<path d="M9.00006 45V25.5C9.00006 23.8431 10.3432 22.5 12.0001 22.5H34.7626C36.4194 22.5 37.7626 21.1569 37.7626 19.5V12.9502C37.7626 10.32 40.9063 8.96305 42.8202 10.767L65.7235 32.3542C66.9651 33.5245 66.982 35.4932 65.7608 36.6847L42.8575 59.0293C40.9572 60.8833 37.7626 59.5368 37.7626 56.882V51C37.7626 49.3431 36.4194 48 34.7626 48H12.0001C10.3432 48 9.00006 46.6569 9.00006 45Z" stroke="white" stroke-width="2"/>
</g>
<defs>
<filter id="filter0_d" x="6.10352e-05" y="0.942383" width="75.6657" height="67.9477" filterUnits="userSpaceOnUse" color-interpolation-filters="sRGB">
<feFlood flood-opacity="0" result="BackgroundImageFix"/>
<feColorMatrix in="SourceAlpha" type="matrix" values="0 0 0 0 0 0 0 0 0 0 0 0 0 0 0 0 0 0 127 0"/>
<feOffset/>
<feGaussianBlur stdDeviation="4"/>
<feColorMatrix type="matrix" values="0 0 0 0 0 0 0 0 0 0 0 0 0 0 0 0 0 0 0.15 0"/>
<feBlend mode="normal" in2="BackgroundImageFix" result="effect1_dropShadow"/>
<feBlend mode="normal" in="SourceGraphic" in2="effect1_dropShadow" result="shape"/>
</filter>
</defs>
</svg>
