<svg width="69" height="77" viewBox="0 0 69 77" fill="none" xmlns="http://www.w3.org/2000/svg">
<g filter="url(#filter0_d)">
<path d="M24 9.4917H43.5C45.1569 9.4917 46.5 10.8348 46.5 12.4917V35.2542C46.5 36.9111 47.8431 38.2542 49.5 38.2542H56.0498C58.68 38.2542 60.037 41.3979 58.233 43.3119L36.6458 66.2151C35.4755 67.4567 33.5068 67.4737 32.3153 66.2524L9.9707 43.3492C8.11673 41.4488 9.46315 38.2542 12.118 38.2542H18C19.6569 38.2542 21 36.9111 21 35.2542V12.4917C21 10.8348 22.3431 9.4917 24 9.4917Z" fill="#E63339"/>
<path d="M24 9.4917H43.5C45.1569 9.4917 46.5 10.8348 46.5 12.4917V35.2542C46.5 36.9111 47.8431 38.2542 49.5 38.2542H56.0498C58.68 38.2542 60.037 41.3979 58.233 43.3119L36.6458 66.2151C35.4755 67.4567 33.5068 67.4737 32.3153 66.2524L9.9707 43.3492C8.11673 41.4488 9.46315 38.2542 12.118 38.2542H18C19.6569 38.2542 21 36.9111 21 35.2542V12.4917C21 10.8348 22.3431 9.4917 24 9.4917Z" stroke="white" stroke-width="2"/>
</g>
<defs>
<filter id="filter0_d" x="0.110107" y="0.491699" width="67.9477" height="75.6657" filterUnits="userSpaceOnUse" color-interpolation-filters="sRGB">
<feFlood flood-opacity="0" result="BackgroundImageFix"/>
<feColorMatrix in="SourceAlpha" type="matrix" values="0 0 0 0 0 0 0 0 0 0 0 0 0 0 0 0 0 0 127 0"/>
<feOffset/>
<feGaussianBlur stdDeviation="4"/>
<feColorMatrix type="matrix" values="0 0 0 0 0 0 0 0 0 0 0 0 0 0 0 0 0 0 0.15 0"/>
<feBlend mode="normal" in2="BackgroundImageFix" result="effect1_dropShadow"/>
<feBlend mode="normal" in="SourceGraphic" in2="effect1_dropShadow" result="shape"/>
</filter>
</defs>
</svg>
