<svg width="53" height="60" viewBox="0 0 53 60" fill="none" xmlns="http://www.w3.org/2000/svg">
<g filter="url(#filter0_d)">
<path d="M18.7034 8L33.3575 8C34.7066 8 35.8004 9.09373 35.8004 10.4429L35.8004 27.4946C35.8004 28.8438 36.8941 29.9375 38.2433 29.9375L42.7662 29.9375C44.9106 29.9375 46.0145 32.503 44.54 34.0601L28.3486 51.1588C27.3964 52.1644 25.7996 52.1781 24.8302 51.1891L8.07064 34.0904C6.55544 32.5445 7.65063 29.9375 9.81525 29.9375L13.8176 29.9375C15.1667 29.9375 16.2605 28.8438 16.2605 27.4946L16.2605 10.4429C16.2605 9.09372 17.3542 8 18.7034 8Z" fill="#6C6C6C"/>
<path d="M18.7034 8L33.3575 8C34.7066 8 35.8004 9.09373 35.8004 10.4429L35.8004 27.4946C35.8004 28.8438 36.8941 29.9375 38.2433 29.9375L42.7662 29.9375C44.9106 29.9375 46.0145 32.503 44.54 34.0601L28.3486 51.1588C27.3964 52.1644 25.7996 52.1781 24.8302 51.1891L8.07064 34.0904C6.55544 32.5445 7.65063 29.9375 9.81525 29.9375L13.8176 29.9375C15.1667 29.9375 16.2605 28.8438 16.2605 27.4946L16.2605 10.4429C16.2605 9.09372 17.3542 8 18.7034 8Z" stroke="white" stroke-width="1.6286"/>
</g>
<defs>
<filter id="filter0_d" x="0.0371041" y="0.671137" width="52.5072" height="58.5795" filterUnits="userSpaceOnUse" color-interpolation-filters="sRGB">
<feFlood flood-opacity="0" result="BackgroundImageFix"/>
<feColorMatrix in="SourceAlpha" type="matrix" values="0 0 0 0 0 0 0 0 0 0 0 0 0 0 0 0 0 0 127 0"/>
<feOffset/>
<feGaussianBlur stdDeviation="3.2572"/>
<feColorMatrix type="matrix" values="0 0 0 0 0 0 0 0 0 0 0 0 0 0 0 0 0 0 0.15 0"/>
<feBlend mode="normal" in2="BackgroundImageFix" result="effect1_dropShadow"/>
<feBlend mode="normal" in="SourceGraphic" in2="effect1_dropShadow" result="shape"/>
</filter>
</defs>
</svg>
