<svg width="69" height="76" viewBox="0 0 69 76" fill="none" xmlns="http://www.w3.org/2000/svg">
<g filter="url(#filter0_d)">
<path d="M24 9L43.5 9C45.1569 9 46.5 10.3431 46.5 12L46.5 34.7625C46.5 36.4194 47.8431 37.7625 49.5 37.7625L56.0498 37.7625C58.68 37.7625 60.0369 40.9062 58.233 42.8202L36.6458 65.7234C35.4755 66.965 33.5068 66.982 32.3153 65.7607L9.9707 42.8575C8.11672 40.9571 9.46315 37.7625 12.118 37.7625L18 37.7625C19.6569 37.7625 21 36.4194 21 34.7625L21 12C21 10.3431 22.3431 9 24 9Z" fill="#6FCF97"/>
<path d="M24 9L43.5 9C45.1569 9 46.5 10.3431 46.5 12L46.5 34.7625C46.5 36.4194 47.8431 37.7625 49.5 37.7625L56.0498 37.7625C58.68 37.7625 60.0369 40.9062 58.233 42.8202L36.6458 65.7234C35.4755 66.965 33.5068 66.982 32.3153 65.7607L9.9707 42.8575C8.11672 40.9571 9.46315 37.7625 12.118 37.7625L18 37.7625C19.6569 37.7625 21 36.4194 21 34.7625L21 12C21 10.3431 22.3431 9 24 9Z" stroke="white" stroke-width="2"/>
</g>
<defs>
<filter id="filter0_d" x="0.110107" y="0" width="67.9477" height="75.6657" filterUnits="userSpaceOnUse" color-interpolation-filters="sRGB">
<feFlood flood-opacity="0" result="BackgroundImageFix"/>
<feColorMatrix in="SourceAlpha" type="matrix" values="0 0 0 0 0 0 0 0 0 0 0 0 0 0 0 0 0 0 127 0"/>
<feOffset/>
<feGaussianBlur stdDeviation="4"/>
<feColorMatrix type="matrix" values="0 0 0 0 0 0 0 0 0 0 0 0 0 0 0 0 0 0 0.15 0"/>
<feBlend mode="normal" in2="BackgroundImageFix" result="effect1_dropShadow"/>
<feBlend mode="normal" in="SourceGraphic" in2="effect1_dropShadow" result="shape"/>
</filter>
</defs>
</svg>
