<svg width="69" height="69" viewBox="0 0 69 69" fill="none" xmlns="http://www.w3.org/2000/svg">
<path d="M9.54941 5.60741C9.54941 7.79766 7.77386 9.57322 5.58361 9.57322C3.39335 9.57322 1.6178 7.79766 1.6178 5.60741C1.6178 3.41715 3.39335 1.6416 5.58361 1.6416C7.77386 1.6416 9.54941 3.41715 9.54941 5.60741Z" fill="#6C6C6C"/>
<path d="M66.5495 62.6074C66.5495 64.7977 64.7739 66.5732 62.5837 66.5732C60.3934 66.5732 58.6179 64.7977 58.6179 62.6074C58.6179 60.4172 60.3934 58.6416 62.5837 58.6416C64.7739 58.6416 66.5495 60.4172 66.5495 62.6074Z" fill="#6C6C6C"/>
<rect x="39.4178" y="62.6416" width="32.7179" height="7.93162" rx="3.96581" transform="rotate(-45 39.4178 62.6416)" fill="#6C6C6C"/>
<rect x="19.9949" y="62.6562" width="60.3207" height="7.93162" rx="3.96581" transform="rotate(-45 19.9949 62.6562)" fill="#6C6C6C"/>
<rect x="28.8176" y="5.64014" width="32.7179" height="7.93162" rx="3.96581" transform="rotate(135 28.8176 5.64014)" fill="#6C6C6C"/>
<path d="M45.5134 2.83589C47.0621 4.38463 47.0621 6.89564 45.5134 8.44439L8.46871 45.4891C6.91997 47.0378 4.40896 47.0378 2.86021 45.4891C1.31147 43.9403 1.31147 41.4293 2.86021 39.8806L39.9049 2.83589C41.4536 1.28714 43.9646 1.28714 45.5134 2.83589Z" fill="#6C6C6C"/>
<rect y="62.6499" width="88.6" height="7.93162" rx="3.96581" transform="rotate(-45 0 62.6499)" fill="#6C6C6C"/>
</svg>
