<svg width="47" height="47" viewBox="0 0 47 47" fill="none" xmlns="http://www.w3.org/2000/svg">
<path fill-rule="evenodd" clip-rule="evenodd" d="M33.3915 26.1298C33.5774 26.8523 33.7106 27.7355 33.1553 28.2721C32.4452 28.5154 26.4205 28.5243 25.9348 28.2019C25.5337 27.6177 25.6363 26.8116 25.794 26.1269C26.709 25.7557 32.5055 25.6525 33.3915 26.1298ZM29.5211 30.8264C28.78 31.7031 27.9628 33.2552 27.972 34.1589C27.9797 34.9327 28.4746 35.5916 29.163 35.8478C28.3816 34.9017 28.8741 32.4515 29.5211 30.8264ZM25.0561 11.868C25.8942 11.3895 26.616 10.5899 28.0292 10.9748C30.2969 11.5916 30.0539 15.4551 27.2679 15.3664C25.9795 15.3252 25.4838 14.3384 24.2823 14.0531V15.995L25.3522 16.2653C25.4302 16.5263 25.4532 16.7147 25.4951 17.0318C25.7059 18.6352 26.4744 17.6548 28.3531 18.5565C30.9411 19.7983 32.3361 21.9806 32.6286 25.0574L26.6675 25.057C25.8475 24.2303 26.8076 23.983 23.7379 23.9596L17.3161 23.9652C16.9733 24.8601 16.7041 25.5044 16.0784 25.9462C15.464 26.3799 14.1185 26.7829 13.4321 26.4779C13.0168 26.1451 13.1239 15.5705 13.4192 15.345C14.1938 15.0339 15.2942 15.416 15.9903 15.8295C16.9335 16.3903 16.8602 16.9899 17.2308 17.5333C17.6388 18.1304 19.5722 18.0054 20.2216 17.7988C20.4634 17.2408 20.1878 16.8551 20.4876 16.4105C20.7797 15.978 21.2545 16.1914 21.9132 16.0785L21.9538 14.0967C20.962 14.1859 20.3882 15.2143 19.1493 15.349C16.3826 15.65 15.8068 11.7651 18.0689 11.024C19.5219 10.5479 20.3697 11.4065 21.2473 11.8741C21.7864 11.2761 21.881 10.6762 23.1517 10.6843C24.3057 10.692 24.473 11.2443 24.8408 11.659C25.0078 11.8474 24.8911 11.7466 25.0561 11.868ZM29.8555 29.6701C28.8613 30.5867 27.533 32.7113 27.4529 33.9471C27.3729 35.1825 28.2561 36.2524 29.425 36.3368C30.5939 36.4215 31.6062 35.4883 31.6859 34.2525C31.7072 33.9205 31.6517 33.4032 31.4549 32.9687C30.9198 31.7878 29.8024 30.4919 29.8555 29.6701Z" fill="#09539D"/>
<circle r="21.5799" transform="matrix(-1 0 0 1 23.3551 23.5132)" stroke="#0B56A4" stroke-width="2.23492"/>
</svg>
