<svg width="69" height="69" viewBox="0 0 69 69" fill="none" xmlns="http://www.w3.org/2000/svg">
<path fill-rule="evenodd" clip-rule="evenodd" d="M19.245 38.4772C18.9625 39.5756 18.76 40.918 19.6041 41.7336C20.6835 42.1034 29.841 42.1169 30.5792 41.6269C31.189 40.7389 31.033 39.5136 30.7933 38.4729C29.4025 37.9087 20.5918 37.7518 19.245 38.4772ZM25.128 45.6161C26.2546 46.9487 27.4968 49.3079 27.4827 50.6815C27.4711 51.8578 26.7188 52.8592 25.6724 53.2486C26.8601 51.8105 26.1115 48.0863 25.128 45.6161ZM31.9149 16.7994C30.641 16.0721 29.5438 14.8566 27.3958 15.4416C23.9489 16.3793 24.3183 22.2518 28.553 22.1169C30.5113 22.0543 31.2648 20.5543 33.0911 20.1208V23.0723L31.4648 23.4832C31.3462 23.88 31.3113 24.1664 31.2477 24.6484C30.9272 27.0855 29.7591 25.5953 26.9035 26.9659C22.9697 28.8535 20.8493 32.1706 20.4046 36.8472L29.4655 36.8466C30.7119 35.59 29.2526 35.2141 33.9185 35.1786L43.6797 35.1871C44.2007 36.5473 44.6099 37.5267 45.5609 38.1982C46.4948 38.8574 48.5401 39.4701 49.5834 39.0065C50.2146 38.5005 50.0519 22.4272 49.603 22.0844C48.4256 21.6116 46.753 22.1923 45.6949 22.8209C44.2613 23.6733 44.3726 24.5846 43.8093 25.4107C43.1892 26.3183 40.2504 26.1282 39.2633 25.8142C38.8957 24.9661 39.3147 24.3798 38.859 23.704C38.415 23.0466 37.6933 23.371 36.6921 23.1993L36.6304 20.187C38.138 20.3225 39.0101 21.8857 40.8932 22.0905C45.0985 22.548 45.9738 16.643 42.5354 15.5165C40.3269 14.7928 39.0382 16.0978 37.7043 16.8086C36.8848 15.8997 36.7411 14.9879 34.8096 15.0001C33.0556 15.0118 32.8012 15.8513 32.2422 16.4817C31.9884 16.7681 32.1657 16.6148 31.9149 16.7994ZM24.6198 43.8585C26.131 45.2518 28.15 48.4812 28.2717 50.3596C28.3934 52.2374 27.0509 53.8637 25.2742 53.9919C23.4975 54.1207 21.9587 52.7022 21.8376 50.8238C21.8052 50.3191 21.8896 49.5329 22.1887 48.8725C23.0021 47.0775 24.7005 45.1077 24.6198 43.8585Z" fill="#09539D"/>
<circle cx="34.5" cy="34.5" r="33" stroke="#0B56A4" stroke-width="3"/>
</svg>
