<svg width="54" height="54" viewBox="0 0 54 54" fill="none" xmlns="http://www.w3.org/2000/svg">
<rect width="54" height="54" rx="15" fill="#EFEFEF"/>
<path fill-rule="evenodd" clip-rule="evenodd" d="M13.245 30.4772C12.9625 31.5756 12.76 32.918 13.6041 33.7336C14.6835 34.1034 23.841 34.1169 24.5792 33.6269C25.189 32.7389 25.033 31.5136 24.7933 30.4729C23.4025 29.9087 14.5918 29.7518 13.245 30.4772ZM19.128 37.6161C20.2546 38.9487 21.4968 41.3079 21.4827 42.6815C21.4711 43.8578 20.7188 44.8592 19.6724 45.2486C20.8601 43.8105 20.1115 40.0863 19.128 37.6161ZM25.9149 8.79939C24.641 8.07208 23.5438 6.8566 21.3958 7.44165C17.9489 8.37931 18.3183 14.2518 22.553 14.1169C24.5113 14.0543 25.2648 12.5543 27.0911 12.1208V15.0723L25.4648 15.4832C25.3462 15.88 25.3113 16.1664 25.2477 16.6484C24.9272 19.0855 23.7591 17.5953 20.9035 18.9659C16.9697 20.8535 14.8493 24.1706 14.4046 28.8472L23.4655 28.8466C24.7119 27.59 23.2526 27.2141 27.9185 27.1786L37.6797 27.1871C38.2007 28.5473 38.6099 29.5267 39.5609 30.1982C40.4948 30.8574 42.5401 31.4701 43.5834 31.0065C44.2146 30.5005 44.0519 14.4272 43.603 14.0844C42.4256 13.6116 40.753 14.1923 39.6949 14.8209C38.2613 15.6733 38.3726 16.5846 37.8093 17.4107C37.1892 18.3183 34.2504 18.1282 33.2633 17.8142C32.8957 16.9661 33.3147 16.3798 32.859 15.704C32.415 15.0466 31.6933 15.371 30.6921 15.1993L30.6304 12.187C32.138 12.3225 33.0101 13.8857 34.8932 14.0905C39.0985 14.548 39.9738 8.64302 36.5354 7.51648C34.3269 6.79284 33.0382 8.09783 31.7043 8.80859C30.8848 7.89975 30.7411 6.98786 28.8096 7.00012C27.0556 7.01177 26.8012 7.8513 26.2422 8.48172C25.9884 8.76811 26.1657 8.6148 25.9149 8.79939ZM18.6198 35.8585C20.131 37.2518 22.15 40.4812 22.2717 42.3596C22.3934 44.2374 21.0509 45.8637 19.2742 45.9919C17.4975 46.1207 15.9587 44.7022 15.8376 42.8238C15.8052 42.3191 15.8896 41.5329 16.1887 40.8725C17.0021 39.0775 18.7005 37.1077 18.6198 35.8585Z" fill="#09539D"/>
</svg>
