<svg width="66" height="65" viewBox="0 0 66 65" fill="none" xmlns="http://www.w3.org/2000/svg">
<path d="M56.6716 40.1258C52.4335 40.1258 49.0055 36.7072 49.0055 32.4997C49.0055 28.2922 52.4335 24.8736 56.6716 24.8736C60.9098 24.8736 64.3378 28.2922 64.3378 32.4997C64.3378 36.7072 60.9098 40.1258 56.6716 40.1258Z" fill="#F8F8F8" stroke="#666666" stroke-width="1.93181"/>
<path d="M8.63209 40.1258C4.39394 40.1258 0.965925 36.7072 0.965925 32.4997C0.965925 28.2922 4.39394 24.8736 8.63209 24.8736C12.8702 24.8736 16.2983 28.2922 16.2983 32.4997C16.2983 36.7072 12.8702 40.1258 8.63209 40.1258Z" fill="#F8F8F8" stroke="#666666" stroke-width="1.93181"/>
<path d="M32.6519 64.034C28.4137 64.034 24.9857 60.6154 24.9857 56.4079C24.9857 52.2004 28.4137 48.7818 32.6519 48.7818C36.89 48.7818 40.318 52.2004 40.318 56.4079C40.318 60.6154 36.89 64.034 32.6519 64.034Z" fill="#F8F8F8" stroke="#666666" stroke-width="1.93181"/>
<path d="M32.6519 16.218C28.4137 16.218 24.9857 12.7995 24.9857 8.59197C24.9857 4.38445 28.4137 0.965906 32.6519 0.965907C36.89 0.965907 40.318 4.38445 40.318 8.59198C40.318 12.7995 36.89 16.218 32.6519 16.218Z" fill="#F8F8F8" stroke="#666666" stroke-width="1.93181"/>
<ellipse cx="56.5427" cy="32.4277" rx="5.5" ry="5.59474" transform="rotate(90 56.5427 32.4277)" fill="#09539D"/>
<ellipse cx="56.5427" cy="32.4277" rx="5.5" ry="5.59474" transform="rotate(90 56.5427 32.4277)" fill="#09539D"/>
<ellipse cx="56.5427" cy="32.4277" rx="5.5" ry="5.59474" transform="rotate(90 56.5427 32.4277)" fill="#5795D3"/>
<path d="M8.59447 37.9277C5.50459 37.9277 2.99974 35.4653 2.99974 32.4277C2.99974 29.3902 5.50459 26.9277 8.59447 26.9277C11.6844 26.9277 14.1892 29.3902 14.1892 32.4277C14.1892 35.4653 11.6844 37.9277 8.59447 37.9277Z" fill="#09539D"/>
<path d="M8.59447 37.9277C5.50459 37.9277 2.99974 35.4653 2.99974 32.4277C2.99974 29.3902 5.50459 26.9277 8.59447 26.9277C11.6844 26.9277 14.1892 29.3902 14.1892 32.4277C14.1892 35.4653 11.6844 37.9277 8.59447 37.9277Z" fill="#09539D"/>
<path d="M8.59447 37.9277C5.50459 37.9277 2.99974 35.4653 2.99974 32.4277C2.99974 29.3902 5.50459 26.9277 8.59447 26.9277C11.6844 26.9277 14.1892 29.3902 14.1892 32.4277C14.1892 35.4653 11.6844 37.9277 8.59447 37.9277Z" fill="#5795D3"/>
<path d="M32.5691 61.8726C29.4792 61.8726 26.9743 59.4101 26.9743 56.3726C26.9743 53.335 29.4792 50.8726 32.5691 50.8726C35.659 50.8726 38.1638 53.335 38.1638 56.3726C38.1638 59.4101 35.659 61.8726 32.5691 61.8726Z" fill="#09539D"/>
<path d="M32.5691 61.8726C29.4792 61.8726 26.9743 59.4101 26.9743 56.3726C26.9743 53.335 29.4792 50.8726 32.5691 50.8726C35.659 50.8726 38.1638 53.335 38.1638 56.3726C38.1638 59.4101 35.659 61.8726 32.5691 61.8726Z" fill="#09539D"/>
<path d="M32.5691 61.8726C29.4792 61.8726 26.9743 59.4101 26.9743 56.3726C26.9743 53.335 29.4792 50.8726 32.5691 50.8726C35.659 50.8726 38.1638 53.335 38.1638 56.3726C38.1638 59.4101 35.659 61.8726 32.5691 61.8726Z" fill="#5795D3"/>
<ellipse cx="32.5227" cy="8.5" rx="5.5" ry="5.59474" transform="rotate(90 32.5227 8.5)" fill="#09539D"/>
<ellipse cx="32.5227" cy="8.5" rx="5.5" ry="5.59474" transform="rotate(90 32.5227 8.5)" fill="#09539D"/>
<ellipse cx="32.5227" cy="8.5" rx="5.5" ry="5.59474" transform="rotate(90 32.5227 8.5)" fill="#5795D3"/>
</svg>
