<svg width="66" height="65" viewBox="0 0 66 65" fill="none" xmlns="http://www.w3.org/2000/svg">
<path d="M56.6716 40.1258C52.4335 40.1258 49.0055 36.7072 49.0055 32.4997C49.0055 28.2922 52.4335 24.8736 56.6716 24.8736C60.9098 24.8736 64.3378 28.2922 64.3378 32.4997C64.3378 36.7072 60.9098 40.1258 56.6716 40.1258Z" fill="#F8F8F8" stroke="#666666" stroke-width="1.93181"/>
<path d="M8.63209 40.1258C4.39394 40.1258 0.965925 36.7072 0.965925 32.4997C0.965925 28.2922 4.39394 24.8736 8.63209 24.8736C12.8702 24.8736 16.2983 28.2922 16.2983 32.4997C16.2983 36.7072 12.8702 40.1258 8.63209 40.1258Z" fill="#F8F8F8" stroke="#666666" stroke-width="1.93181"/>
<path d="M32.6519 64.034C28.4137 64.034 24.9857 60.6154 24.9857 56.4079C24.9857 52.2004 28.4137 48.7818 32.6519 48.7818C36.89 48.7818 40.318 52.2004 40.318 56.4079C40.318 60.6154 36.89 64.034 32.6519 64.034Z" fill="#F8F8F8" stroke="#666666" stroke-width="1.93181"/>
<path d="M32.6519 16.218C28.4137 16.218 24.9857 12.7995 24.9857 8.59197C24.9857 4.38445 28.4137 0.965906 32.6519 0.965907C36.89 0.965907 40.318 4.38445 40.318 8.59198C40.318 12.7995 36.89 16.218 32.6519 16.218Z" fill="#F8F8F8" stroke="#666666" stroke-width="1.93181"/>
</svg>
