<svg width="80" height="86" viewBox="0 0 80 86" fill="none" xmlns="http://www.w3.org/2000/svg">
<g opacity="0.65">
<rect width="21.6667" height="14.0996" rx="2.4429" fill="#6FCF97"/>
<rect x="43.3333" width="21.6667" height="14.0996" rx="2.4429" fill="#6FCF97"/>
<rect y="46.0093" width="21.6667" height="14.0996" rx="2.4429" fill="#6FCF97"/>
<rect x="43.3333" y="46.0093" width="21.6667" height="14.0996" rx="2.4429" fill="#6FCF97"/>
<rect x="21.6667" y="23.0049" width="21.6667" height="14.0996" rx="2.4429" fill="#6FCF97"/>
</g>
<path d="M30.4832 51.2075C30.4832 49.7549 32.2407 49.029 33.2657 50.0583L40.1998 57.021L47.15 64.0001C48.1727 65.027 47.4454 66.7779 45.9961 66.7779H32.1118C31.2123 66.7779 30.4832 66.0488 30.4832 65.1493L30.4832 51.2075Z" fill="#C4C4C4"/>
<path d="M54.489 25.9516C54.489 24.4991 56.2466 23.7732 57.2715 24.8024L71.1559 38.7442C72.1786 39.7712 71.4512 41.5221 70.0019 41.5221L56.1176 41.5221C55.2181 41.5221 54.489 40.7929 54.489 39.8935V25.9516Z" fill="#C4C4C4"/>
<path d="M7.25879 70.4396C7.25879 68.9887 9.01288 68.2621 10.0389 69.2879L23.8921 83.1387C24.9182 84.1646 24.1916 85.919 22.7406 85.919H8.88739C7.98794 85.919 7.25879 85.1898 7.25879 84.2904L7.25879 70.4396Z" fill="#C4C4C4"/>
<path d="M60.5858 70.4398C60.5858 68.989 62.3399 68.2623 63.3659 69.2881L77.2191 83.1389C78.2452 84.1649 77.5186 85.9192 76.0676 85.9192L62.2144 85.9192C61.3149 85.9192 60.5858 85.1901 60.5858 84.2906V70.4398Z" fill="#C4C4C4"/>
<path d="M75.8278 75.966C75.8278 79.1374 73.2688 81.7083 70.1121 81.7083C66.9555 81.7083 64.3965 79.1374 64.3965 75.966C64.3965 72.7946 66.9555 70.2236 70.1121 70.2236C73.2688 70.2236 75.8278 72.7946 75.8278 75.966Z" fill="#09539D"/>
<path d="M75.8278 75.966C75.8278 79.1374 73.2688 81.7083 70.1121 81.7083C66.9555 81.7083 64.3965 79.1374 64.3965 75.966C64.3965 72.7946 66.9555 70.2236 70.1121 70.2236C73.2688 70.2236 75.8278 72.7946 75.8278 75.966Z" fill="#09539D"/>
<path d="M75.8278 75.966C75.8278 79.1374 73.2688 81.7083 70.1121 81.7083C66.9555 81.7083 64.3965 79.1374 64.3965 75.966C64.3965 72.7946 66.9555 70.2236 70.1121 70.2236C73.2688 70.2236 75.8278 72.7946 75.8278 75.966Z" fill="#5795D3"/>
<ellipse cx="24.387" cy="72.1378" rx="6.0967" ry="5.74233" fill="#09539D"/>
<ellipse cx="24.387" cy="72.1378" rx="6.0967" ry="5.74233" fill="#09539D"/>
<ellipse cx="24.387" cy="72.1378" rx="6.0967" ry="5.74233" fill="#5795D3"/>
<path d="M43.4386 56.0592C43.4386 59.2306 40.8797 61.8016 37.723 61.8016C34.5663 61.8016 32.0073 59.2306 32.0073 56.0592C32.0073 52.8878 34.5663 50.3169 37.723 50.3169C40.8797 50.3169 43.4386 52.8878 43.4386 56.0592Z" fill="#09539D"/>
<path d="M43.4386 56.0592C43.4386 59.2306 40.8797 61.8016 37.723 61.8016C34.5663 61.8016 32.0073 59.2306 32.0073 56.0592C32.0073 52.8878 34.5663 50.3169 37.723 50.3169C40.8797 50.3169 43.4386 52.8878 43.4386 56.0592Z" fill="#09539D"/>
<path d="M43.4386 56.0592C43.4386 59.2306 40.8797 61.8016 37.723 61.8016C34.5663 61.8016 32.0073 59.2306 32.0073 56.0592C32.0073 52.8878 34.5663 50.3169 37.723 50.3169C40.8797 50.3169 43.4386 52.8878 43.4386 56.0592Z" fill="#5795D3"/>
<path d="M11.4313 36.9176C11.4313 40.089 8.87233 42.66 5.71566 42.66C2.55899 42.66 0 40.089 0 36.9176C0 33.7462 2.55899 31.1753 5.71566 31.1753C8.87233 31.1753 11.4313 33.7462 11.4313 36.9176Z" fill="#09539D"/>
<path d="M11.4313 36.9176C11.4313 40.089 8.87233 42.66 5.71566 42.66C2.55899 42.66 0 40.089 0 36.9176C0 33.7462 2.55899 31.1753 5.71566 31.1753C8.87233 31.1753 11.4313 33.7462 11.4313 36.9176Z" fill="#09539D"/>
<path d="M11.4313 36.9176C11.4313 40.089 8.87233 42.66 5.71566 42.66C2.55899 42.66 0 40.089 0 36.9176C0 33.7462 2.55899 31.1753 5.71566 31.1753C8.87233 31.1753 11.4313 33.7462 11.4313 36.9176Z" fill="#5795D3"/>
</svg>
