<svg width="66" height="65" viewBox="0 0 66 65" fill="none" xmlns="http://www.w3.org/2000/svg">
<ellipse cx="58.1363" cy="32.5004" rx="7.13416" ry="7.16746" transform="rotate(90 58.1363 32.5004)" fill="#09539D"/>
<ellipse cx="58.1363" cy="32.5004" rx="7.13416" ry="7.16746" transform="rotate(90 58.1363 32.5004)" fill="#09539D"/>
<ellipse cx="58.1363" cy="32.5004" rx="7.13416" ry="7.16746" transform="rotate(90 58.1363 32.5004)" fill="#5795D3"/>
<ellipse cx="7.1675" cy="32.5004" rx="7.13416" ry="7.16746" transform="rotate(90 7.1675 32.5004)" fill="#09539D"/>
<ellipse cx="7.1675" cy="32.5004" rx="7.13416" ry="7.16746" transform="rotate(90 7.1675 32.5004)" fill="#09539D"/>
<ellipse cx="7.1675" cy="32.5004" rx="7.13416" ry="7.16746" transform="rotate(90 7.1675 32.5004)" fill="#5795D3"/>
<ellipse cx="32.6519" cy="57.8666" rx="7.13416" ry="7.16746" transform="rotate(90 32.6519 57.8666)" fill="#09539D"/>
<ellipse cx="32.6519" cy="57.8666" rx="7.13416" ry="7.16746" transform="rotate(90 32.6519 57.8666)" fill="#09539D"/>
<ellipse cx="32.6519" cy="57.8666" rx="7.13416" ry="7.16746" transform="rotate(90 32.6519 57.8666)" fill="#5795D3"/>
<ellipse cx="32.6519" cy="7.13465" rx="7.13416" ry="7.16746" transform="rotate(90 32.6519 7.13465)" fill="#09539D"/>
<ellipse cx="32.6519" cy="7.13465" rx="7.13416" ry="7.16746" transform="rotate(90 32.6519 7.13465)" fill="#09539D"/>
<ellipse cx="32.6519" cy="7.13465" rx="7.13416" ry="7.16746" transform="rotate(90 32.6519 7.13465)" fill="#5795D3"/>
</svg>
