<svg width="65" height="74" viewBox="0 0 65 74" fill="none" xmlns="http://www.w3.org/2000/svg">
<path d="M5.2002 3.94477C5.2002 2.49202 6.95821 1.76622 7.98307 2.79586L24.7213 19.6122C25.7436 20.6392 25.0161 22.3897 23.567 22.3897L6.8288 22.3897C5.92935 22.3897 5.2002 21.6606 5.2002 20.7611L5.2002 3.94477Z" fill="#C4C4C4"/>
<path d="M42.7145 12.1543C42.7145 10.7016 44.4725 9.97578 45.4973 11.0054L62.2356 27.8218C63.2578 28.8488 62.5304 30.5993 61.0813 30.5993L44.3431 30.5993C43.4436 30.5993 42.7145 29.8701 42.7145 28.9707L42.7145 12.1543Z" fill="#C4C4C4"/>
<path d="M0 39.7685C0 38.3157 1.75801 37.5899 2.78288 38.6196L19.5211 55.4359C20.5434 56.463 19.8159 58.2134 18.3668 58.2134H1.6286C0.729151 58.2134 0 57.4843 0 56.5848L0 39.7685Z" fill="#C4C4C4"/>
<path d="M40.1143 54.695C40.1143 53.2422 41.8723 52.5164 42.8971 53.5461L59.6354 70.3624C60.6576 71.3894 59.9302 73.1399 58.4811 73.1399H41.7429C40.8434 73.1399 40.1143 72.4108 40.1143 71.5113L40.1143 54.695Z" fill="#C4C4C4"/>
<ellipse cx="54.5995" cy="18.2849" rx="5.57143" ry="5.59743" fill="#09539D"/>
<ellipse cx="54.5995" cy="18.2849" rx="5.57143" ry="5.59743" fill="#09539D"/>
<ellipse cx="54.5995" cy="18.2849" rx="5.57143" ry="5.59743" fill="#5795D3"/>
<ellipse cx="10.7711" cy="46.6453" rx="5.57143" ry="5.59743" fill="#09539D"/>
<ellipse cx="10.7711" cy="46.6453" rx="5.57143" ry="5.59743" fill="#09539D"/>
<ellipse cx="10.7711" cy="46.6453" rx="5.57143" ry="5.59743" fill="#5795D3"/>
<path d="M63.8853 49.6306C63.8853 52.722 61.3909 55.2281 58.3139 55.2281C55.2368 55.2281 52.7424 52.722 52.7424 49.6306C52.7424 46.5393 55.2368 44.0332 58.3139 44.0332C61.3909 44.0332 63.8853 46.5393 63.8853 49.6306Z" fill="#09539D"/>
<path d="M63.8853 49.6306C63.8853 52.722 61.3909 55.2281 58.3139 55.2281C55.2368 55.2281 52.7424 52.722 52.7424 49.6306C52.7424 46.5393 55.2368 44.0332 58.3139 44.0332C61.3909 44.0332 63.8853 46.5393 63.8853 49.6306Z" fill="#09539D"/>
<path d="M63.8853 49.6306C63.8853 52.722 61.3909 55.2281 58.3139 55.2281C55.2368 55.2281 52.7424 52.722 52.7424 49.6306C52.7424 46.5393 55.2368 44.0332 58.3139 44.0332C61.3909 44.0332 63.8853 46.5393 63.8853 49.6306Z" fill="#5795D3"/>
<path d="M31.1997 30.9724C31.1997 34.0638 28.7053 36.5699 25.6283 36.5699C22.5513 36.5699 20.0569 34.0638 20.0569 30.9724C20.0569 27.8811 22.5513 25.375 25.6283 25.375C28.7053 25.375 31.1997 27.8811 31.1997 30.9724Z" fill="#09539D"/>
<path d="M31.1997 30.9724C31.1997 34.0638 28.7053 36.5699 25.6283 36.5699C22.5513 36.5699 20.0569 34.0638 20.0569 30.9724C20.0569 27.8811 22.5513 25.375 25.6283 25.375C28.7053 25.375 31.1997 27.8811 31.1997 30.9724Z" fill="#09539D"/>
<path d="M31.1997 30.9724C31.1997 34.0638 28.7053 36.5699 25.6283 36.5699C22.5513 36.5699 20.0569 34.0638 20.0569 30.9724C20.0569 27.8811 22.5513 25.375 25.6283 25.375C28.7053 25.375 31.1997 27.8811 31.1997 30.9724Z" fill="#5795D3"/>
</svg>
