<svg width="258" height="65" viewBox="0 0 258 65" fill="none" xmlns="http://www.w3.org/2000/svg">
<circle cx="32.5" cy="32.5" r="32.5" fill="#00924F"/>
<path d="M45.2731 17.4867C44.8362 17.1199 44.7356 16.5153 44.5233 16.0146C44.4239 15.9752 44.3221 16.0196 44.2808 16.0983C44.1411 16.6292 44.3278 17.1985 43.8796 17.5985C43.3902 17.2952 43.0662 16.6816 42.7119 16.2916C42.5801 16.211 42.4717 16.3632 42.3968 16.4116C42.1812 16.9195 42.903 17.5461 42.2381 17.8293C41.4638 17.8313 40.8078 17.4907 40.4581 16.8731C40.2615 16.7834 40.2324 17.0071 40.1396 17.0766C40.0055 17.934 40.1954 18.8399 41.0156 19.373C41.9644 19.926 42.989 19.4344 43.9468 19.5916C41.1834 20.3966 39.9117 22.8461 38.4892 24.8169C37.659 26.0483 37.2299 27.4852 36.5336 28.785C36.0632 29.5184 35.2476 30.1755 34.3 30.3185C32.1724 30.5119 29.6325 30.125 28.1731 28.664C27.2133 27.4609 26.5059 26.0433 25.2712 25.0255L23.9113 23.75C22.4061 23.1001 20.8194 22.1126 19.0035 22.3413C16.7183 22.2335 14.4276 23.7228 13.355 25.4578C12.5426 26.812 11.9291 28.5209 12.0352 30.1592C11.8632 31.6475 12.3716 32.9866 12.4789 34.4093C13.0062 35.7878 13.327 37.2055 14.2724 38.4911C14.8891 39.535 15.2814 40.7129 16.3206 41.5673C16.4056 41.6168 16.4714 41.6147 16.5507 41.5543C16.2703 40.4903 15.8334 39.4746 15.677 38.3934C16.0691 38.5728 16.3228 39.2126 16.8737 39.1159C16.6893 38.4629 16.315 37.8301 16.0904 37.1823C15.5429 35.5489 14.9193 33.7594 15.7808 32.0042C15.7161 34.3378 16.3877 36.5183 17.8212 38.5396C18.2124 38.5153 17.829 38.2161 17.9152 38.0377C17.9074 37.0866 17.6894 36.0437 18.2101 35.1136C18.2459 35.4199 18.1431 35.7526 18.1922 36.0608C18.1509 37.2074 18.5655 38.2685 18.9097 39.3426C18.9834 39.4494 19.0739 39.6791 19.2449 39.6217C19.2595 38.9747 19.4248 38.3027 19.5912 37.6316C19.8797 38.3602 20.0886 39.1017 20.4886 39.8111L20.7088 39.8444C20.816 38.9838 20.8942 37.9985 21.1925 37.1188C22.0888 38.3128 23.1659 39.2458 24.6622 39.5813C26.6937 40.1195 28.487 41.0051 30.1845 42.0449C30.4862 42.1397 30.8493 42.1941 31.1119 42.0057C30.7555 42.5528 29.8862 42.9246 29.7834 43.6178C30.065 44.9589 30.4874 46.3333 30.0337 47.7541C29.704 47.9566 29.3419 48.1783 28.9163 48.1006C28.8123 48.1571 28.733 48.2286 28.7385 48.3375C29 48.5098 29.5374 48.4121 29.7275 48.7536C29.9063 49.0086 29.9052 49.2967 29.9431 49.5909C29.3353 49.9184 28.3844 50.3033 28.4603 51.0358C28.7821 51.0962 29.0224 50.664 29.3922 50.6842C30.5745 50.6358 30.7365 52.0434 31.8886 52.0141C32.4729 52.3074 33.5558 52.1483 33.5713 52.9915C33.748 53.0429 33.8104 52.8475 33.8955 52.7528C34.0196 52.4465 34.0932 52.0495 33.7894 51.8238C34.6185 52.0938 35.9235 51.6676 36.3761 52.53C36.6957 52.6026 36.5885 52.1774 36.6321 52.0152C36.6152 51.0398 35.3314 51.2051 34.6386 50.8464C34.6855 50.6015 34.5067 50.3466 34.2708 50.2499C33.463 49.9355 32.6115 50.3577 31.8976 49.9728L31.7991 49.6453L31.8551 46.2175C31.9824 45.2512 33.3569 44.956 34.157 44.5246C34.7714 45.1595 35.0855 45.9042 35.5001 46.6044C35.6912 47.2221 35.2553 47.8407 35.0743 48.3787C35.366 48.6025 36.0621 48.3717 36.1102 48.8241C36.6633 49.7138 35.3235 50.1097 35.3559 50.932C35.6229 50.9965 35.756 50.6448 36.0264 50.6257L36.6365 50.4302C36.7728 50.8353 36.8612 51.2937 37.2443 51.592C38.3038 52.0545 39.7039 51.8348 40.6011 52.4525C40.8828 52.5915 40.4603 52.9956 40.9486 52.8777C41.1644 52.7184 41.2067 52.4243 41.2012 52.1714L40.8247 51.6212C41.3487 51.593 41.9555 51.6253 42.455 51.8096C42.655 51.9477 42.6952 52.2308 42.9065 52.3105C43.1444 52.1069 43.0773 51.6878 42.9387 51.4268C42.7175 50.9723 42.1756 50.805 41.694 50.7446C41.5822 50.4867 41.3655 50.2257 41.0872 50.0755C40.0804 49.8972 39.2234 50.4162 38.2099 50.0685C37.5863 49.6262 37.6265 48.9107 37.3751 48.3315C37.1796 47.1001 36.2879 45.9555 36.9248 44.6225C37.4322 43.8345 38.0725 43.1151 38.6904 42.3795L38.7429 42.2434C41.1788 41.7619 43.4775 39.9482 44.9949 38.2453C47.2442 35.415 46.4789 31.5367 46.3938 28.3647C46.3904 27.8832 46.2475 27.4408 46.2855 26.9542C47.1045 26.5611 47.8477 26.0141 47.9917 25.1706C47.8509 24.2124 46.8721 23.3903 47.1414 22.3857C47.6488 22.3061 48.2644 22.3645 48.6891 22.6577C48.7774 22.6829 48.8745 22.6617 48.9527 22.6013C49.0041 21.9726 48.3394 21.5352 47.9158 21.098C48.2934 20.8552 48.9516 20.6909 48.9908 20.1921C49.0311 19.4777 48.9315 18.8006 48.8343 18.1134C48.8087 18.0369 48.6946 18.0076 48.603 17.9936C48.3326 18.3009 48.3505 18.7723 48.0431 19.0615C47.9224 19.2118 47.823 19.0999 47.7325 19.0152L47.623 18.7451C47.6632 18.175 47.6476 17.6197 47.6186 17.0625C47.033 17.0574 47.2364 17.8938 46.6889 18.1104C46.2329 17.4888 46.328 16.6977 46.0978 16.0025C45.3389 16.211 45.6788 17.0312 45.2731 17.4867Z" fill="white"/>
<mask id="path-3-inside-1" fill="white">
<path fill-rule="evenodd" clip-rule="evenodd" d="M56 64.8486C66.5708 59.072 73.8742 46.7243 73.8742 32.4243C73.8742 18.1244 66.5708 5.77662 56 0H225.536C243.444 0 257.961 14.5169 257.961 32.4243C257.961 50.3318 243.444 64.8486 225.536 64.8486H56Z"/>
</mask>
<path fill-rule="evenodd" clip-rule="evenodd" d="M56 64.8486C66.5708 59.072 73.8742 46.7243 73.8742 32.4243C73.8742 18.1244 66.5708 5.77662 56 0H225.536C243.444 0 257.961 14.5169 257.961 32.4243C257.961 50.3318 243.444 64.8486 225.536 64.8486H56Z" fill="#FBFBFB"/>
<path d="M56 64.8486L54.5614 62.2161L56 67.8486V64.8486ZM56 0V-3L54.5614 2.63256L56 0ZM70.8742 32.4243C70.8742 45.7366 64.0773 57.0159 54.5614 62.2161L57.4386 67.4812C69.0643 61.1281 76.8742 47.7119 76.8742 32.4243H70.8742ZM54.5614 2.63256C64.0773 7.83272 70.8742 19.1121 70.8742 32.4243H76.8742C76.8742 17.1367 69.0643 3.72053 57.4386 -2.63256L54.5614 2.63256ZM56 3H225.536V-3H56V3ZM225.536 3C241.787 3 254.961 16.1737 254.961 32.4243H260.961C260.961 12.86 245.101 -3 225.536 -3V3ZM254.961 32.4243C254.961 48.6749 241.787 61.8486 225.536 61.8486V67.8486C245.101 67.8486 260.961 51.9886 260.961 32.4243H254.961ZM225.536 61.8486H56V67.8486H225.536V61.8486Z" fill="#00924F" mask="url(#path-3-inside-1)"/>
</svg>
