<svg width="258" height="65" viewBox="0 0 258 65" fill="none" xmlns="http://www.w3.org/2000/svg">
<circle r="32.5" transform="matrix(-1 0 0 1 225.5 32.5)" fill="#00924F"/>
<mask id="path-2-inside-1" fill="white">
<path fill-rule="evenodd" clip-rule="evenodd" d="M201.961 64.8486C191.39 59.072 184.086 46.7243 184.086 32.4243C184.086 18.1244 191.39 5.77662 201.961 0H32.4243C14.5168 0 -1.71708e-05 14.5169 -1.71708e-05 32.4243C-1.71708e-05 50.3318 14.5168 64.8486 32.4243 64.8486H201.961Z"/>
</mask>
<path fill-rule="evenodd" clip-rule="evenodd" d="M201.961 64.8486C191.39 59.072 184.086 46.7243 184.086 32.4243C184.086 18.1244 191.39 5.77662 201.961 0H32.4243C14.5168 0 -1.71708e-05 14.5169 -1.71708e-05 32.4243C-1.71708e-05 50.3318 14.5168 64.8486 32.4243 64.8486H201.961Z" fill="#FBFBFB"/>
<path d="M201.961 64.8486L203.399 62.2161L201.961 67.8486V64.8486ZM201.961 0V-3L203.399 2.63256L201.961 0ZM187.086 32.4243C187.086 45.7366 193.883 57.0159 203.399 62.2161L200.522 67.4812C188.896 61.1281 181.086 47.712 181.086 32.4243H187.086ZM203.399 2.63256C193.883 7.83272 187.086 19.1121 187.086 32.4243H181.086C181.086 17.1367 188.896 3.72053 200.522 -2.63256L203.399 2.63256ZM201.961 3H32.4243V-3H201.961V3ZM32.4243 3C16.1737 3 2.99998 16.1737 2.99998 32.4243H-3.00002C-3.00002 12.86 12.86 -3 32.4243 -3V3ZM2.99998 32.4243C2.99998 48.6749 16.1737 61.8486 32.4243 61.8486V67.8486C12.86 67.8486 -3.00002 51.9886 -3.00002 32.4243H2.99998ZM32.4243 61.8486H201.961V67.8486H32.4243V61.8486Z" fill="#00924F" mask="url(#path-2-inside-1)"/>
<path d="M234.067 21.3158C236.379 21.1904 238.629 20.8329 240.856 21.092C242.328 21.2126 243.563 22.132 244.78 23.0307C245.19 22.7666 245.751 22.541 246.268 22.7041C246.605 22.7928 246.938 23.074 247.043 23.4091C247.09 23.7806 246.923 24.1274 246.659 24.3615C246.713 24.5785 246.951 24.7695 247.172 24.7937C247.412 24.9306 247.785 24.6855 247.993 24.8872C248.034 25.0521 247.887 25.1359 247.774 25.1858C247.657 25.1822 247.606 25.2871 247.507 25.3126C247.048 25.4738 246.509 25.4671 246.127 25.1753C246.409 26.69 246.325 28.4263 245.592 29.8591C245.085 30.9086 244.313 31.8848 243.634 32.7825C243.254 32.9591 243.394 33.3213 243.372 33.6384C243.459 34.2514 243.573 34.816 243.929 35.3173C244.215 36.3404 243.729 37.2879 243.703 38.3117C243.645 39.4847 243.554 40.6301 243.678 41.8155C243.654 42.1865 243.461 42.5822 243.387 42.9198C243.223 43.2207 242.837 43.2594 242.528 43.3674C241.872 43.5104 241.135 43.5538 240.607 43.1311C240.542 42.8073 240.862 42.5831 240.988 42.294C241.17 41.8686 241.653 41.559 241.585 41.059C241.617 40.6875 241.717 40.3009 241.652 39.9007L241.678 39.7751C241.575 38.6416 241.637 37.9597 241.354 36.8134C241.32 36.7093 241.264 36.6227 241.216 36.5352C240.893 37.113 240.589 37.712 240.217 38.2638C239.637 39.5894 238.754 40.6995 238.23 42.1037C238.371 42.7116 237.732 43.091 237.603 43.6568C237.3 44.1174 236.484 44.0001 235.963 43.9449C235.656 43.8377 235.333 43.7321 235.062 43.5365C235.069 43.4515 235.159 43.4196 235.197 43.3312C235.518 42.6692 235.865 42.1734 236.198 41.4795C236.741 40.1732 237.894 39.0281 237.901 37.5992C237.952 37.1869 237.962 36.6869 238.041 36.2492C238.096 35.4985 238.277 34.6895 238.276 33.9295C237.916 34.0732 237.526 34.2277 237.123 34.3222C235.864 34.672 234.604 35.0135 233.221 35.1455C231.756 35.3854 230.182 35.6365 228.716 35.5693C226.731 35.6849 224.845 35.4835 222.992 35.1481C223.249 36.3509 223.388 37.5347 223.236 38.694C223.408 39.6673 223.83 40.7305 223.847 41.7112C223.828 42.1357 223.68 42.5114 223.679 42.9492C223.502 43.1973 223.345 43.4896 223.153 43.8162C222.423 44.0739 221.583 44.0283 220.927 43.7184C220.765 43.6653 220.889 43.5072 220.865 43.4251C221.121 42.9616 221.29 42.5607 221.571 42.1099C221.936 41.4972 221.597 40.7174 221.599 39.9802C221.303 38.7201 220.849 37.5066 220.176 36.4303C219.965 36.2058 219.828 35.9434 219.603 35.7279C219.386 36.6406 218.978 37.5188 218.486 38.4127C218.354 39.1709 218.052 39.9385 218.024 40.7243C218.051 41.3514 217.795 41.8918 217.837 42.5249C217.737 42.8344 217.477 43.0371 217.141 43.1092C216.637 43.2908 216.186 43.0753 215.679 43.1572C215.546 43.1476 215.406 43.0772 215.304 43.003C215.242 42.7021 215.354 42.5831 215.483 42.3247C215.606 41.8514 215.913 41.7285 215.83 41.2377C215.58 40.3338 216.333 39.7663 216.386 38.8551C216.517 38.3886 216.639 37.6161 216.614 36.9969C216.674 36.5223 216.651 36.0794 216.663 35.5944C216.645 35.5731 216.616 35.5914 216.592 35.5862C216.535 35.638 216.454 35.6846 216.381 35.7381C215.638 36.1664 214.903 36.5242 214.349 37.1253C213.531 37.8913 212.24 38.0829 211.309 38.6529C210.88 38.9571 210.271 39.2567 209.82 39.4943C209.224 39.7614 208.624 39.9984 207.89 40.0724C207.657 40.15 207.489 40.3432 207.238 40.3303C206.885 40.0818 206.584 40.5653 206.23 40.3091C205.628 40.3005 205.023 40.0392 204.607 39.7126C204.556 39.5258 204.608 39.4206 204.736 39.3003C204.801 39.2554 204.854 39.2423 204.948 39.2406C205.163 39.2879 205.147 39.0516 205.283 38.9382C205.749 38.5379 205.944 37.8655 206.203 37.3557C206.346 36.6347 206.814 35.8811 206.866 35.1081C206.898 34.8131 207.076 34.5034 207.022 34.2016C207.046 34.2071 207.051 34.1834 207.066 34.1742C206.004 33.9513 204.961 33.5957 204.037 33.0439C203.967 32.9663 204.003 32.8704 204.086 32.8391C204.285 32.7271 204.558 32.6456 204.77 32.5093C204.682 32.4105 204.426 32.5054 204.468 32.3092C204.625 32.1706 204.849 32.1479 205.034 32.0527C205.864 31.7 206.786 31.4152 207.687 31.1553C208.597 29.7737 209.965 28.599 211.23 27.481C212.082 26.5198 213.044 25.7164 214.102 25.0182C214.44 24.7389 214.739 24.4628 215.115 24.2559C215.813 23.9169 216.465 23.4981 217.26 23.3485C218.061 23.1679 218.811 23.0232 219.667 23.0062C220.214 22.9434 220.736 22.929 221.283 22.8586L223.162 22.4773L228.397 21.8648C229.164 21.8873 229.947 21.7622 230.704 21.6167C231.828 21.6184 232.952 21.3978 234.067 21.3158V21.3158Z" fill="white"/>
</svg>
