<svg width="69" height="77" viewBox="0 0 69 77" fill="none" xmlns="http://www.w3.org/2000/svg"><g filter="url(#a)"><path d="M24 9.492h19.5a3 3 0 0 1 3 3v22.762a3 3 0 0 0 3 3h6.55c2.63 0 3.987 3.144 2.183 5.058L36.646 66.215a3 3 0 0 1-4.33.037L9.97 43.35c-1.854-1.9-.508-5.095 2.147-5.095H18a3 3 0 0 0 3-3V12.492a3 3 0 0 1 3-3z" fill="#E63339"/><path d="M24 9.492h19.5a3 3 0 0 1 3 3v22.762a3 3 0 0 0 3 3h6.55c2.63 0 3.987 3.144 2.183 5.058L36.646 66.215a3 3 0 0 1-4.33.037L9.97 43.35c-1.854-1.9-.508-5.095 2.147-5.095H18a3 3 0 0 0 3-3V12.492a3 3 0 0 1 3-3z" stroke="#fff" stroke-width="2"/></g><defs><filter id="a" x=".11" y=".492" width="67.948" height="75.666" filterUnits="userSpaceOnUse" color-interpolation-filters="sRGB"><feFlood flood-opacity="0" result="BackgroundImageFix"/><feColorMatrix in="SourceAlpha" values="0 0 0 0 0 0 0 0 0 0 0 0 0 0 0 0 0 0 127 0"/><feOffset/><feGaussianBlur stdDeviation="4"/><feColorMatrix values="0 0 0 0 0 0 0 0 0 0 0 0 0 0 0 0 0 0 0.15 0"/><feBlend in2="BackgroundImageFix" result="effect1_dropShadow"/><feBlend in="SourceGraphic" in2="effect1_dropShadow" result="shape"/></filter></defs></svg>