<svg width="69" height="76" viewBox="0 0 69 76" fill="none" xmlns="http://www.w3.org/2000/svg"><g filter="url(#a)"><path d="M24 9h19.5a3 3 0 0 1 3 3v22.763a3 3 0 0 0 3 3h6.55c2.63 0 3.987 3.143 2.183 5.057L36.646 65.723a3 3 0 0 1-4.33.038L9.97 42.858c-1.854-1.9-.508-5.095 2.147-5.095H18a3 3 0 0 0 3-3V12a3 3 0 0 1 3-3z" fill="#6FCF97"/><path d="M24 9h19.5a3 3 0 0 1 3 3v22.763a3 3 0 0 0 3 3h6.55c2.63 0 3.987 3.143 2.183 5.057L36.646 65.723a3 3 0 0 1-4.33.038L9.97 42.858c-1.854-1.9-.508-5.095 2.147-5.095H18a3 3 0 0 0 3-3V12a3 3 0 0 1 3-3z" stroke="#fff" stroke-width="2"/></g><defs><filter id="a" x=".11" y="0" width="67.948" height="75.666" filterUnits="userSpaceOnUse" color-interpolation-filters="sRGB"><feFlood flood-opacity="0" result="BackgroundImageFix"/><feColorMatrix in="SourceAlpha" values="0 0 0 0 0 0 0 0 0 0 0 0 0 0 0 0 0 0 127 0"/><feOffset/><feGaussianBlur stdDeviation="4"/><feColorMatrix values="0 0 0 0 0 0 0 0 0 0 0 0 0 0 0 0 0 0 0.15 0"/><feBlend in2="BackgroundImageFix" result="effect1_dropShadow"/><feBlend in="SourceGraphic" in2="effect1_dropShadow" result="shape"/></filter></defs></svg>