<svg width="76" height="69" viewBox="0 0 76 69" fill="none" xmlns="http://www.w3.org/2000/svg"><g filter="url(#a)"><path d="M9 45V25.5a3 3 0 0 1 3-3h22.763a3 3 0 0 0 3-3v-6.55c0-2.63 3.143-3.987 5.057-2.183l22.904 21.587a3 3 0 0 1 .037 4.33L42.858 59.03c-1.9 1.854-5.095.508-5.095-2.147V51a3 3 0 0 0-3-3H12a3 3 0 0 1-3-3z" fill="#6FCF97"/><path d="M9 45V25.5a3 3 0 0 1 3-3h22.763a3 3 0 0 0 3-3v-6.55c0-2.63 3.143-3.987 5.057-2.183l22.904 21.587a3 3 0 0 1 .037 4.33L42.858 59.03c-1.9 1.854-5.095.508-5.095-2.147V51a3 3 0 0 0-3-3H12a3 3 0 0 1-3-3z" stroke="#fff" stroke-width="2"/></g><defs><filter id="a" x="0" y=".942" width="75.666" height="67.948" filterUnits="userSpaceOnUse" color-interpolation-filters="sRGB"><feFlood flood-opacity="0" result="BackgroundImageFix"/><feColorMatrix in="SourceAlpha" values="0 0 0 0 0 0 0 0 0 0 0 0 0 0 0 0 0 0 127 0"/><feOffset/><feGaussianBlur stdDeviation="4"/><feColorMatrix values="0 0 0 0 0 0 0 0 0 0 0 0 0 0 0 0 0 0 0.15 0"/><feBlend in2="BackgroundImageFix" result="effect1_dropShadow"/><feBlend in="SourceGraphic" in2="effect1_dropShadow" result="shape"/></filter></defs></svg>