<svg width="76" height="69" viewBox="0 0 76 69" fill="none" xmlns="http://www.w3.org/2000/svg"><g filter="url(#a)"><path d="M9.263 45V25.5a3 3 0 0 1 3-3h22.629a3 3 0 0 0 3-3v-6.528c0-2.633 3.15-3.989 5.062-2.178L65.728 32.36a3 3 0 0 1 .037 4.32L42.992 59.002c-1.899 1.86-5.1.516-5.1-2.142V51a3 3 0 0 0-3-3h-22.63a3 3 0 0 1-3-3z" fill="#6C6C6C"/><path d="M9.263 45V25.5a3 3 0 0 1 3-3h22.629a3 3 0 0 0 3-3v-6.528c0-2.633 3.15-3.989 5.062-2.178L65.728 32.36a3 3 0 0 1 .037 4.32L42.992 59.002c-1.899 1.86-5.1.516-5.1-2.142V51a3 3 0 0 0-3-3h-22.63a3 3 0 0 1-3-3z" stroke="#fff" stroke-width="2"/></g><defs><filter id="a" x=".263" y=".964" width="75.402" height="67.902" filterUnits="userSpaceOnUse" color-interpolation-filters="sRGB"><feFlood flood-opacity="0" result="BackgroundImageFix"/><feColorMatrix in="SourceAlpha" values="0 0 0 0 0 0 0 0 0 0 0 0 0 0 0 0 0 0 127 0"/><feOffset/><feGaussianBlur stdDeviation="4"/><feColorMatrix values="0 0 0 0 0 0 0 0 0 0 0 0 0 0 0 0 0 0 0.15 0"/><feBlend in2="BackgroundImageFix" result="effect1_dropShadow"/><feBlend in="SourceGraphic" in2="effect1_dropShadow" result="shape"/></filter></defs></svg>