<svg width="53" height="60" viewBox="0 0 53 60" fill="none" xmlns="http://www.w3.org/2000/svg"><g filter="url(#a)"><path d="M18.703 8h14.655a2.443 2.443 0 0 1 2.442 2.443v17.052a2.443 2.443 0 0 0 2.443 2.442h4.523c2.145 0 3.248 2.566 1.774 4.123L28.349 51.16a2.443 2.443 0 0 1-3.519.03L8.07 34.09c-1.515-1.546-.42-4.153 1.745-4.153h4.003a2.443 2.443 0 0 0 2.443-2.442V10.443A2.443 2.443 0 0 1 18.703 8z" fill="#6C6C6C"/><path d="M18.703 8h14.655a2.443 2.443 0 0 1 2.442 2.443v17.052a2.443 2.443 0 0 0 2.443 2.442h4.523c2.145 0 3.248 2.566 1.774 4.123L28.349 51.16a2.443 2.443 0 0 1-3.519.03L8.07 34.09c-1.515-1.546-.42-4.153 1.745-4.153h4.003a2.443 2.443 0 0 0 2.443-2.442V10.443A2.443 2.443 0 0 1 18.703 8z" stroke="#fff" stroke-width="1.629"/></g><defs><filter id="a" x=".037" y=".671" width="52.507" height="58.58" filterUnits="userSpaceOnUse" color-interpolation-filters="sRGB"><feFlood flood-opacity="0" result="BackgroundImageFix"/><feColorMatrix in="SourceAlpha" values="0 0 0 0 0 0 0 0 0 0 0 0 0 0 0 0 0 0 127 0"/><feOffset/><feGaussianBlur stdDeviation="3.257"/><feColorMatrix values="0 0 0 0 0 0 0 0 0 0 0 0 0 0 0 0 0 0 0.15 0"/><feBlend in2="BackgroundImageFix" result="effect1_dropShadow"/><feBlend in="SourceGraphic" in2="effect1_dropShadow" result="shape"/></filter></defs></svg>