<svg width="69" height="69" viewBox="0 0 69 69" fill="none" xmlns="http://www.w3.org/2000/svg"><path d="M9.55 5.607a3.966 3.966 0 1 1-7.932 0 3.966 3.966 0 0 1 7.931 0zM66.55 62.607a3.966 3.966 0 1 1-7.932 0 3.966 3.966 0 0 1 7.931 0z" fill="#6C6C6C"/><rect x="39.418" y="62.642" width="32.718" height="7.932" rx="3.966" transform="rotate(-45 39.418 62.642)" fill="#6C6C6C"/><rect x="19.995" y="62.656" width="60.321" height="7.932" rx="3.966" transform="rotate(-45 19.995 62.656)" fill="#6C6C6C"/><rect x="28.818" y="5.64" width="32.718" height="7.932" rx="3.966" transform="rotate(135 28.818 5.64)" fill="#6C6C6C"/><path d="M45.513 2.836a3.966 3.966 0 0 1 0 5.608L8.47 45.49a3.966 3.966 0 0 1-5.609-5.608L39.905 2.836a3.966 3.966 0 0 1 5.608 0z" fill="#6C6C6C"/><rect y="62.65" width="88.6" height="7.932" rx="3.966" transform="rotate(-45 0 62.65)" fill="#6C6C6C"/></svg>