<svg width="54" height="54" viewBox="0 0 54 54" fill="none" xmlns="http://www.w3.org/2000/svg"><rect opacity=".5" width="54" height="54" rx="15" fill="#6FCF97"/><path fill-rule="evenodd" clip-rule="evenodd" d="M17.301 44h20.33c.283-.115 1.437-.033 2.708-.91.746-.513 1.252-1.07 1.733-1.946.72-1.308.974-4.688.921-6.46-.147-5.216-2.05-9.643-5.363-13.29l-.873-.853c-.129-.117-.19-.155-.436-.154-5.69.037-11.48.002-17.177.002-.765 0-.705-.117-1.551.76a21.084 21.084 0 0 0-1.602 1.894c-3.564 4.734-4.705 10.586-3.567 16.564.182.953.48 1.702 1.062 2.408l.42.462C15.251 43.898 17 43.867 17.3 44zm15.923-11.67c-.227.117-.334.287-.8.46a3.088 3.088 0 0 1-1.053.187c-1.529.007-2.85-1.133-4.138-.473-1.767.905-.195 4.488 4.662 1.044.342-.243 1.183-.9 1.329-1.218zm-2.706 2.745c-.087.111-.523.395-.73.48-1.16.473-2.08.174-3.158-.195-2.37-.811-3.251.688-2.7 1.681.277.5.926.824 1.728.79 1.208-.05 2.644-.83 3.557-1.524.396-.301 1.103-.849 1.303-1.232zm5.4-5.487c-.602.376-.913.652-1.855.665-1.48.02-2.875-1.134-4.13-.488-1.517.781-.668 3.69 3.078 1.988a9.423 9.423 0 0 0 1.584-.945c.357-.263 1.165-.892 1.323-1.22zm-11.734-.808c-.27.1-.97 1.021-1.183 1.337a12.18 12.18 0 0 0-.915 1.59c-1.22 2.49-.056 4.289 1.248 3.799 1.056-.397.983-1.79.687-2.717-.364-1.143-.784-2.369-.089-3.614.084-.15.194-.256.252-.395zm2.795-2.848c-.289.114-.945.99-1.183 1.32-.795 1.1-1.936 3.266-1.27 4.692.73 1.569 3.175.914 2.227-2.056-.222-.697-.445-1.228-.43-2.071.014-.932.25-1.255.656-1.885zm2.66-2.71c-.563.23-1.76 2.196-2.095 2.919-.27.583-.497 1.232-.537 1.972-.15 2.752 3.533 2.619 2.446-.903-.363-1.174-.777-2.288-.08-3.584.088-.163.208-.27.265-.404zm5.188 1.144c-.393.047-1.267.497-1.633.67-1.148.545-3.843 2.134-2.482 3.675.416.47 1.029.535 1.61.112.975-.712 2.199-3.325 2.505-4.457zM21.56 36.505c-.155.083-1.85 2.24-2.058 2.514-.134.176-.338.31-.222.65.066.19.267.434.413.505.29.142.499-.085.631-.205l1.7-1.458c.927-.815 1.04-.7.403-1.125-.575-.384-.641-1.003-.867-.881zM33.729 10h-1.084c-.066.028-.91.136-1.466.322-2.246.752-2.907 2.354-5.074 1.152-.398-.221-.733-.411-1.13-.63a7.295 7.295 0 0 0-1.245-.55c-.559-.18-1.39-.273-1.446-.294h-1.02c-.15.068-1.117.127-1.939.444a9.194 9.194 0 0 0-1.586.794l-1.013.748c-.4.346-1.312 1.169-1.486 1.577.08.119.162.163.266.26.503.465 1.055 1.04 1.582 1.504.102.09.153.166.253.26l1.856 1.745c.503.454.135.398 1.148.398 4.895 0 9.896-.04 14.774.002.43.003.377-.152.927-.624.108-.094.15-.162.254-.26l3.166-3.007c.11-.1.206-.155.285-.278-.068-.165-.41-.535-.521-.667l-.923-.878c-2.549-2.098-4.113-1.81-4.578-2.018z" fill="#00924F"/></svg>