<svg width="47" height="47" viewBox="0 0 47 47" fill="none" xmlns="http://www.w3.org/2000/svg"><path fill-rule="evenodd" clip-rule="evenodd" d="M15.104 36h15.739c.22-.088 1.112-.026 2.097-.695.577-.393.969-.819 1.341-1.489.558-1 .754-3.585.714-4.94-.114-3.989-1.588-7.374-4.153-10.162l-.675-.653c-.1-.09-.147-.119-.338-.118-4.405.029-8.888.002-13.298.002-.593 0-.546-.09-1.201.581-.43.44-.86.95-1.24 1.448-2.76 3.62-3.643 8.096-2.762 12.667.14.728.37 1.301.822 1.84l.325.355c1.042 1.085 2.396 1.061 2.629 1.164zm12.327-8.924c-.175.09-.259.22-.619.352-.245.09-.525.141-.816.143-1.183.005-2.206-.867-3.203-.362-1.368.692-.151 3.432 3.61.798.264-.185.915-.688 1.028-.93zm-2.095 2.099c-.067.085-.404.302-.566.367-.897.362-1.61.133-2.444-.15-1.835-.62-2.517.527-2.09 1.287.215.381.717.63 1.338.604.935-.039 2.046-.635 2.753-1.166.307-.23.854-.649 1.01-.942zm4.18-4.196c-.465.288-.706.5-1.435.508-1.146.015-2.226-.866-3.198-.372-1.174.597-.517 2.82 2.383 1.52a7.302 7.302 0 0 0 1.227-.723c.276-.2.901-.682 1.024-.933zm-9.083-.618c-.21.077-.751.781-.917 1.022a9.285 9.285 0 0 0-.707 1.217c-.945 1.904-.044 3.28.965 2.904.818-.303.762-1.368.533-2.077-.282-.874-.607-1.811-.07-2.764.065-.114.15-.195.196-.302zm2.163-2.177c-.223.086-.73.756-.916 1.008-.615.842-1.498 2.498-.983 3.588.566 1.2 2.459.7 1.725-1.571-.173-.534-.345-.94-.334-1.585.011-.712.194-.959.508-1.44zm2.06-2.073c-.436.175-1.363 1.679-1.622 2.232-.208.446-.385.942-.416 1.508-.116 2.105 2.736 2.003 1.893-.69-.28-.898-.6-1.75-.061-2.741.068-.125.16-.206.205-.309zm4.017.875c-.305.036-.981.38-1.265.513-.889.416-2.976 1.631-1.921 2.81.322.358.796.409 1.246.085.755-.544 1.702-2.542 1.94-3.408zM18.4 30.268c-.12.064-1.432 1.713-1.593 1.923-.104.135-.261.237-.172.498.05.145.207.331.32.385.224.109.386-.065.489-.157l1.316-1.114c.717-.624.805-.535.312-.86-.446-.295-.497-.768-.672-.675zM27.822 10h-.839c-.05.021-.705.104-1.135.246-1.739.575-2.25 1.8-3.928.88-.308-.168-.568-.313-.875-.48a5.677 5.677 0 0 0-.964-.422c-.433-.136-1.076-.207-1.12-.224h-.79c-.116.052-.864.097-1.5.34a7.147 7.147 0 0 0-1.228.607l-.785.572c-.309.264-1.015.894-1.15 1.206.062.09.125.125.206.198.39.356.817.795 1.225 1.15.08.07.119.128.196.2l1.437 1.334c.39.347.104.304.889.304 3.79 0 7.661-.03 11.438.001.332.003.291-.115.717-.477.083-.071.117-.123.196-.199l2.452-2.299c.085-.076.16-.118.22-.212-.052-.127-.317-.41-.403-.51l-.715-.672C29.393 9.94 28.182 10.16 27.822 10z" fill="#00924F"/><circle r="21.58" transform="matrix(-1 0 0 1 23.355 23.513)" stroke="#00924F" stroke-width="2.235"/></svg>