<svg width="46" height="47" viewBox="0 0 46 47" fill="none" xmlns="http://www.w3.org/2000/svg"><path fill-rule="evenodd" clip-rule="evenodd" d="M12.661 26.13c-.186.722-.32 1.605.236 2.142.71.243 6.735.252 7.22-.07.402-.584.3-1.39.142-2.075-.916-.371-6.712-.474-7.598.003zm3.87 4.696c.742.877 1.559 2.43 1.55 3.333a1.826 1.826 0 0 1-1.191 1.689c.78-.946.288-3.396-.359-5.022zm4.465-18.958c-.838-.479-1.56-1.278-2.973-.893-2.267.617-2.024 4.48.762 4.391 1.288-.04 1.784-1.028 2.985-1.313v1.942l-1.07.27c-.078.261-.1.45-.143.767-.21 1.603-.979.623-2.858 1.524-2.588 1.242-3.983 3.425-4.275 6.501h5.96c.821-.827-.14-1.074 2.93-1.097l6.422.005c.343.895.612 1.54 1.238 1.981.614.434 1.96.837 2.646.532.416-.333.309-10.908.013-11.133-.774-.311-1.875.071-2.57.484-.944.561-.87 1.16-1.241 1.704-.408.597-2.342.472-2.991.266-.242-.558.034-.944-.266-1.389-.292-.432-.767-.219-1.426-.332l-.04-1.981c.991.089 1.565 1.117 2.804 1.252 2.767.301 3.343-3.584 1.08-4.325-1.452-.476-2.3.383-3.178.85-.539-.598-.633-1.198-1.904-1.19-1.154.008-1.322.56-1.69.975-.166.188-.05.088-.215.209zM16.197 29.67c.994.917 2.323 3.041 2.402 4.277.08 1.235-.803 2.305-1.971 2.39-1.17.084-2.182-.849-2.261-2.085-.022-.332.034-.849.23-1.283.536-1.181 1.653-2.477 1.6-3.299z" fill="#09539D"/><circle cx="22.697" cy="23.513" r="21.58" stroke="#0B56A4" stroke-width="2.235"/></svg>