<svg width="47" height="47" viewBox="0 0 47 47" fill="none" xmlns="http://www.w3.org/2000/svg"><path fill-rule="evenodd" clip-rule="evenodd" d="M33.392 26.13c.185.722.319 1.605-.237 2.142-.71.243-6.735.252-7.22-.07-.401-.584-.299-1.39-.141-2.075.915-.371 6.711-.474 7.598.003zm-3.87 4.696c-.742.877-1.56 2.43-1.55 3.333a1.826 1.826 0 0 0 1.191 1.689c-.781-.946-.289-3.396.358-5.022zm-4.466-18.958c.838-.479 1.56-1.278 2.973-.893 2.268.617 2.025 4.48-.761 4.391-1.288-.04-1.784-1.028-2.986-1.313v1.942l1.07.27c.078.261.101.45.143.767.21 1.603.98.623 2.858 1.524 2.588 1.242 3.983 3.425 4.276 6.501h-5.961c-.82-.827.14-1.074-2.93-1.097l-6.422.005c-.343.895-.612 1.54-1.238 1.981-.614.434-1.96.837-2.646.532-.415-.333-.308-10.908-.013-11.133.775-.311 1.875.071 2.571.484.943.561.87 1.16 1.24 1.704.409.597 2.342.472 2.992.266.241-.558-.034-.944.266-1.389.292-.432.767-.219 1.425-.332l.04-1.981c-.991.089-1.565 1.117-2.804 1.252-2.766.301-3.342-3.584-1.08-4.325 1.453-.476 2.3.383 3.178.85.54-.598.634-1.198 1.905-1.19 1.154.008 1.321.56 1.689.975.167.188.05.088.215.209zm4.8 17.802c-.995.917-2.323 3.041-2.403 4.277-.08 1.235.803 2.305 1.972 2.39 1.169.084 2.181-.849 2.26-2.085a2.905 2.905 0 0 0-.23-1.283c-.535-1.181-1.653-2.477-1.6-3.299z" fill="#09539D"/><circle r="21.58" transform="matrix(-1 0 0 1 23.355 23.513)" stroke="#0B56A4" stroke-width="2.235"/></svg>