<svg width="69" height="69" viewBox="0 0 69 69" fill="none" xmlns="http://www.w3.org/2000/svg"><path fill-rule="evenodd" clip-rule="evenodd" d="M19.245 38.477c-.283 1.099-.485 2.441.36 3.257 1.078.37 10.236.383 10.974-.107.61-.888.454-2.113.214-3.154-1.39-.564-10.201-.721-11.548.004zm5.883 7.14c1.127 1.332 2.369 3.69 2.355 5.065a2.775 2.775 0 0 1-1.81 2.567c1.187-1.439.439-5.163-.545-7.633zm6.787-28.818c-1.274-.727-2.371-1.942-4.52-1.357-3.446.937-3.077 6.81 1.158 6.675 1.958-.063 2.712-1.563 4.538-1.996v2.951l-1.626.411c-.119.397-.154.683-.217 1.165-.32 2.438-1.489.947-4.345 2.318-3.933 1.887-6.054 5.205-6.498 9.881h9.06c1.247-1.257-.212-1.633 4.454-1.668l9.76.008c.522 1.36.93 2.34 1.882 3.011.934.66 2.98 1.272 4.022.809.632-.506.469-16.58.02-16.923-1.177-.472-2.85.108-3.908.737-1.434.852-1.322 1.764-1.886 2.59-.62.907-3.559.717-4.546.403-.367-.848.052-1.434-.404-2.11-.444-.657-1.166-.333-2.167-.505l-.062-3.012c1.508.136 2.38 1.699 4.263 1.903 4.206.458 5.08-5.447 1.642-6.573-2.208-.724-3.497.58-4.83 1.292-.82-.91-.964-1.821-2.895-1.809-1.754.012-2.009.851-2.568 1.482-.254.286-.076.133-.327.317zM24.62 43.86c1.511 1.393 3.53 4.622 3.652 6.5.121 1.878-1.221 3.505-2.998 3.633-1.777.129-3.315-1.29-3.436-3.168-.033-.505.052-1.291.35-1.951.814-1.795 2.513-3.765 2.432-5.014z" fill="#09539D"/><circle cx="34.5" cy="34.5" r="33" stroke="#0B56A4" stroke-width="3"/></svg>