<svg width="84" height="84" viewBox="0 0 84 84" fill="none" xmlns="http://www.w3.org/2000/svg"><circle cx="8.322" cy="8.958" r="8.318" fill="#6FCF97"/><circle cx="8.322" cy="8.958" r="8.318" fill="#6FCF97"/><circle cx="8.322" cy="8.958" r="8.318" fill="#6FCF97"/><circle cx="41.596" cy="8.958" r="8.318" fill="#6FCF97"/><circle cx="41.596" cy="8.958" r="8.318" fill="#6FCF97"/><circle cx="41.596" cy="8.958" r="8.318" fill="#6FCF97"/><circle cx="74.869" cy="8.958" r="8.318" fill="#6FCF97"/><circle cx="74.869" cy="8.958" r="8.318" fill="#6FCF97"/><circle cx="74.869" cy="8.958" r="8.318" fill="#6FCF97"/><circle cx="8.322" cy="42.231" r="8.318" fill="#6FCF97"/><circle cx="8.322" cy="42.231" r="8.318" fill="#6FCF97"/><circle cx="8.322" cy="42.231" r="8.318" fill="#6FCF97"/><circle cx="41.596" cy="42.231" r="8.318" fill="#6FCF97"/><circle cx="41.596" cy="42.231" r="8.318" fill="#6FCF97"/><circle cx="41.596" cy="42.231" r="8.318" fill="#6FCF97"/><circle cx="74.869" cy="42.231" r="8.318" fill="#6FCF97"/><circle cx="74.869" cy="42.231" r="8.318" fill="#6FCF97"/><circle cx="74.869" cy="42.231" r="8.318" fill="#6FCF97"/><circle cx="8.322" cy="75.504" r="8.318" fill="#6FCF97"/><circle cx="8.322" cy="75.504" r="8.318" fill="#6FCF97"/><circle cx="8.322" cy="75.504" r="8.318" fill="#6FCF97"/><circle cx="41.596" cy="75.504" r="8.318" fill="#6FCF97"/><circle cx="41.596" cy="75.504" r="8.318" fill="#6FCF97"/><circle cx="41.596" cy="75.504" r="8.318" fill="#6FCF97"/><circle cx="74.869" cy="75.504" r="8.318" fill="#6FCF97"/><circle cx="74.869" cy="75.504" r="8.318" fill="#6FCF97"/><circle cx="74.869" cy="75.504" r="8.318" fill="#6FCF97"/></svg>