<svg width="18" height="18" viewBox="0 0 18 18" fill="none" xmlns="http://www.w3.org/2000/svg"><path d="M.526.072C.3.174.076.472.025.736c-.084.461-.157.377 3.903 4.449L7.73 8.992l-3.808 3.813C1.83 14.898.092 16.67.06 16.737c-.09.18-.073.562.028.781.174.366.72.569 1.125.417.084-.034 1.878-1.766 3.987-3.853l3.83-3.79 3.768 3.773c2.166 2.165 3.841 3.802 3.943 3.847.765.332 1.535-.49 1.164-1.232-.05-.101-1.777-1.873-3.841-3.937l-3.746-3.762 3.78-3.746C18.168 1.186 18.06 1.31 17.97.815c-.1-.546-.781-.872-1.288-.619-.1.05-1.855 1.766-3.903 3.808L9.052 7.727l-3.78-3.78C3.192 1.872 1.408.134 1.307.084A1.017 1.017 0 0 0 .526.072z" fill="#fff"/></svg>