<svg width="50" height="50" viewBox="0 0 50 50" fill="none" xmlns="http://www.w3.org/2000/svg"><g filter="url(#a)"><path fill-rule="evenodd" clip-rule="evenodd" d="M41.846 24.204a2.443 2.443 0 0 0-2.443-2.443H28.02V10.443A2.443 2.443 0 0 0 25.577 8h-1.62a2.443 2.443 0 0 0-2.444 2.443V21.76H10.13a2.443 2.443 0 0 0-2.442 2.443v1.59a2.443 2.443 0 0 0 2.442 2.444h11.383v11.32A2.443 2.443 0 0 0 23.956 42h1.62a2.443 2.443 0 0 0 2.444-2.443v-11.32h11.383a2.443 2.443 0 0 0 2.443-2.442v-1.59z" fill="#6C6C6C"/><path d="M39.403 21.761v-.814.814zm-11.383 0h-.815v.815h.815v-.815zm-6.507 0v.815h.815v-.815h-.815zm-11.383 0v-.814.814zm0 6.477v-.815.815zm11.383 0h.815v-.815h-.815v.815zm6.507 0v-.815h-.815v.815h.815zm11.383 0v-.815.815zm0-5.662c.9 0 1.629.729 1.629 1.628h1.629a3.257 3.257 0 0 0-3.258-3.257v1.629zm-11.383 0h11.383v-1.629H28.02v1.629zm-.815-12.133V21.76h1.629V10.443h-1.629zm-1.628-1.629c.9 0 1.628.73 1.628 1.629h1.629a3.257 3.257 0 0 0-3.257-3.257v1.628zm-1.62 0h1.62V7.186h-1.62v1.628zm-1.63 1.629c0-.9.73-1.629 1.63-1.629V7.186a3.257 3.257 0 0 0-3.258 3.257h1.629zm0 11.318V10.443H20.7V21.76h1.629zm-12.197.815h11.383v-1.629H10.13v1.629zm-1.628 1.628c0-.9.729-1.628 1.628-1.628v-1.629a3.257 3.257 0 0 0-3.257 3.257h1.629zm0 1.59v-1.59H6.873v1.59h1.629zm1.628 1.63c-.899 0-1.628-.73-1.628-1.63H6.873a3.257 3.257 0 0 0 3.257 3.258v-1.629zm11.383 0H10.13v1.628h11.383v-1.629zm.815 12.133v-11.32h-1.629v11.32h1.629zm1.628 1.629c-.9 0-1.628-.73-1.628-1.629h-1.629a3.257 3.257 0 0 0 3.257 3.257v-1.628zm1.62 0h-1.62v1.628h1.62v-1.628zm1.63-1.629c0 .9-.73 1.629-1.63 1.629v1.628a3.257 3.257 0 0 0 3.258-3.257h-1.629zm0-11.32v11.32h1.628v-11.32h-1.629zm12.197-.814H28.02v1.629h11.383v-1.629zm1.629-1.628c0 .9-.73 1.628-1.629 1.628v1.629a3.257 3.257 0 0 0 3.258-3.257h-1.63zm0-1.59v1.59h1.629v-1.59h-1.63z" fill="#fff"/></g><defs><filter id="a" x=".359" y=".671" width="48.816" height="48.657" filterUnits="userSpaceOnUse" color-interpolation-filters="sRGB"><feFlood flood-opacity="0" result="BackgroundImageFix"/><feColorMatrix in="SourceAlpha" values="0 0 0 0 0 0 0 0 0 0 0 0 0 0 0 0 0 0 127 0"/><feOffset/><feGaussianBlur stdDeviation="3.257"/><feColorMatrix values="0 0 0 0 0 0 0 0 0 0 0 0 0 0 0 0 0 0 0.15 0"/><feBlend in2="BackgroundImageFix" result="effect1_dropShadow"/><feBlend in="SourceGraphic" in2="effect1_dropShadow" result="shape"/></filter></defs></svg>