<svg width="66" height="65" viewBox="0 0 66 65" fill="none" xmlns="http://www.w3.org/2000/svg"><ellipse cx="58.136" cy="32.5" rx="7.134" ry="7.167" transform="rotate(90 58.136 32.5)" fill="#09539D"/><ellipse cx="58.136" cy="32.5" rx="7.134" ry="7.167" transform="rotate(90 58.136 32.5)" fill="#09539D"/><ellipse cx="58.136" cy="32.5" rx="7.134" ry="7.167" transform="rotate(90 58.136 32.5)" fill="#5795D3"/><ellipse cx="7.168" cy="32.5" rx="7.134" ry="7.167" transform="rotate(90 7.168 32.5)" fill="#09539D"/><ellipse cx="7.168" cy="32.5" rx="7.134" ry="7.167" transform="rotate(90 7.168 32.5)" fill="#09539D"/><ellipse cx="7.168" cy="32.5" rx="7.134" ry="7.167" transform="rotate(90 7.168 32.5)" fill="#5795D3"/><ellipse cx="32.652" cy="57.867" rx="7.134" ry="7.167" transform="rotate(90 32.652 57.867)" fill="#09539D"/><ellipse cx="32.652" cy="57.867" rx="7.134" ry="7.167" transform="rotate(90 32.652 57.867)" fill="#09539D"/><ellipse cx="32.652" cy="57.867" rx="7.134" ry="7.167" transform="rotate(90 32.652 57.867)" fill="#5795D3"/><ellipse cx="32.652" cy="7.135" rx="7.134" ry="7.167" transform="rotate(90 32.652 7.135)" fill="#09539D"/><ellipse cx="32.652" cy="7.135" rx="7.134" ry="7.167" transform="rotate(90 32.652 7.135)" fill="#09539D"/><ellipse cx="32.652" cy="7.135" rx="7.134" ry="7.167" transform="rotate(90 32.652 7.135)" fill="#5795D3"/></svg>