<svg width="66" height="65" viewBox="0 0 66 65" fill="none" xmlns="http://www.w3.org/2000/svg"><path d="M56.672 40.126c-4.238 0-7.666-3.419-7.666-7.626 0-4.208 3.428-7.626 7.666-7.626s7.666 3.418 7.666 7.626c0 4.207-3.428 7.626-7.666 7.626zM8.632 40.126c-4.238 0-7.666-3.419-7.666-7.626 0-4.208 3.428-7.626 7.666-7.626s7.666 3.418 7.666 7.626c0 4.207-3.428 7.626-7.666 7.626zM32.652 64.034c-4.238 0-7.666-3.419-7.666-7.626 0-4.208 3.428-7.626 7.666-7.626s7.666 3.418 7.666 7.626c0 4.207-3.428 7.626-7.666 7.626zM32.652 16.218c-4.238 0-7.666-3.418-7.666-7.626S28.414.966 32.652.966s7.666 3.418 7.666 7.626c0 4.207-3.428 7.626-7.666 7.626z" fill="#F8F8F8" stroke="#666" stroke-width="1.932"/><ellipse cx="56.543" cy="32.428" rx="5.5" ry="5.595" transform="rotate(90 56.543 32.428)" fill="#09539D"/><ellipse cx="56.543" cy="32.428" rx="5.5" ry="5.595" transform="rotate(90 56.543 32.428)" fill="#09539D"/><ellipse cx="56.543" cy="32.428" rx="5.5" ry="5.595" transform="rotate(90 56.543 32.428)" fill="#5795D3"/><path d="M8.594 37.928c-3.09 0-5.594-2.463-5.594-5.5 0-3.038 2.505-5.5 5.594-5.5 3.09 0 5.595 2.462 5.595 5.5 0 3.037-2.505 5.5-5.595 5.5z" fill="#09539D"/><path d="M8.594 37.928c-3.09 0-5.594-2.463-5.594-5.5 0-3.038 2.505-5.5 5.594-5.5 3.09 0 5.595 2.462 5.595 5.5 0 3.037-2.505 5.5-5.595 5.5z" fill="#09539D"/><path d="M8.594 37.928c-3.09 0-5.594-2.463-5.594-5.5 0-3.038 2.505-5.5 5.594-5.5 3.09 0 5.595 2.462 5.595 5.5 0 3.037-2.505 5.5-5.595 5.5z" fill="#5795D3"/><path d="M32.57 61.873c-3.09 0-5.596-2.463-5.596-5.5 0-3.038 2.505-5.5 5.595-5.5s5.595 2.462 5.595 5.5c0 3.037-2.505 5.5-5.595 5.5z" fill="#09539D"/><path d="M32.57 61.873c-3.09 0-5.596-2.463-5.596-5.5 0-3.038 2.505-5.5 5.595-5.5s5.595 2.462 5.595 5.5c0 3.037-2.505 5.5-5.595 5.5z" fill="#09539D"/><path d="M32.57 61.873c-3.09 0-5.596-2.463-5.596-5.5 0-3.038 2.505-5.5 5.595-5.5s5.595 2.462 5.595 5.5c0 3.037-2.505 5.5-5.595 5.5z" fill="#5795D3"/><ellipse cx="32.523" cy="8.5" rx="5.5" ry="5.595" transform="rotate(90 32.523 8.5)" fill="#09539D"/><ellipse cx="32.523" cy="8.5" rx="5.5" ry="5.595" transform="rotate(90 32.523 8.5)" fill="#09539D"/><ellipse cx="32.523" cy="8.5" rx="5.5" ry="5.595" transform="rotate(90 32.523 8.5)" fill="#5795D3"/></svg>