<svg width="66" height="65" viewBox="0 0 66 65" fill="none" xmlns="http://www.w3.org/2000/svg"><path d="M56.672 40.126c-4.238 0-7.666-3.419-7.666-7.626 0-4.208 3.428-7.626 7.666-7.626s7.666 3.418 7.666 7.626c0 4.207-3.428 7.626-7.666 7.626zM8.632 40.126c-4.238 0-7.666-3.419-7.666-7.626 0-4.208 3.428-7.626 7.666-7.626s7.666 3.418 7.666 7.626c0 4.207-3.428 7.626-7.666 7.626zM32.652 64.034c-4.238 0-7.666-3.419-7.666-7.626 0-4.208 3.428-7.626 7.666-7.626s7.666 3.418 7.666 7.626c0 4.207-3.428 7.626-7.666 7.626zM32.652 16.218c-4.238 0-7.666-3.418-7.666-7.626S28.414.966 32.652.966s7.666 3.418 7.666 7.626c0 4.207-3.428 7.626-7.666 7.626z" fill="#F8F8F8" stroke="#666" stroke-width="1.932"/></svg>