<svg width="65" height="65" viewBox="0 0 65 65" fill="none" xmlns="http://www.w3.org/2000/svg"><rect y="1.707" width="21.667" height="14.1" rx="2.898" fill="#6FCF97"/><rect x="43.333" y="1.707" width="21.667" height="14.1" rx="2.898" fill="#6FCF97"/><rect y="47.717" width="21.667" height="14.1" rx="2.898" fill="#6FCF97"/><rect x="43.333" y="47.717" width="21.667" height="14.1" rx="2.898" fill="#6FCF97"/><rect x="21.667" y="24.712" width="21.667" height="14.1" rx="2.898" fill="#6FCF97"/><path d="M56.246 39.66c-4.184 0-7.568-3.376-7.568-7.53 0-4.153 3.384-7.528 7.568-7.528 4.184 0 7.568 3.375 7.568 7.529 0 4.153-3.384 7.528-7.568 7.528zM8.752 39.66c-4.184 0-7.568-3.376-7.568-7.53 0-4.153 3.384-7.528 7.568-7.528 4.184 0 7.568 3.375 7.568 7.529 0 4.153-3.384 7.528-7.568 7.528zM32.5 63.296c-4.185 0-7.569-3.375-7.569-7.529 0-4.153 3.384-7.528 7.568-7.528 4.184 0 7.569 3.375 7.569 7.528 0 4.154-3.385 7.529-7.569 7.529zM32.5 16.023c-4.185 0-7.569-3.375-7.569-7.529 0-4.153 3.384-7.528 7.568-7.528 4.184 0 7.569 3.375 7.569 7.528 0 4.154-3.385 7.529-7.569 7.529z" fill="#F8F8F8" stroke="#666" stroke-width="1.932"/><ellipse cx="56.214" cy="32.122" rx="5.25" ry="5.34" transform="rotate(90 56.214 32.122)" fill="#09539D"/><ellipse cx="56.214" cy="32.122" rx="5.25" ry="5.34" transform="rotate(90 56.214 32.122)" fill="#09539D"/><ellipse cx="56.214" cy="32.122" rx="5.25" ry="5.34" transform="rotate(90 56.214 32.122)" fill="#5795D3"/><path d="M8.81 37.372c-2.949 0-5.34-2.35-5.34-5.25s2.392-5.25 5.34-5.25c2.95 0 5.341 2.35 5.341 5.25s-2.39 5.25-5.34 5.25z" fill="#09539D"/><path d="M8.81 37.372c-2.949 0-5.34-2.35-5.34-5.25s2.392-5.25 5.34-5.25c2.95 0 5.341 2.35 5.341 5.25s-2.39 5.25-5.34 5.25z" fill="#09539D"/><path d="M8.81 37.372c-2.949 0-5.34-2.35-5.34-5.25s2.392-5.25 5.34-5.25c2.95 0 5.341 2.35 5.341 5.25s-2.39 5.25-5.34 5.25z" fill="#5795D3"/><path d="M32.513 61.044c-2.95 0-5.34-2.35-5.34-5.25s2.39-5.25 5.34-5.25c2.95 0 5.34 2.35 5.34 5.25s-2.39 5.25-5.34 5.25z" fill="#09539D"/><path d="M32.513 61.044c-2.95 0-5.34-2.35-5.34-5.25s2.39-5.25 5.34-5.25c2.95 0 5.34 2.35 5.34 5.25s-2.39 5.25-5.34 5.25z" fill="#09539D"/><path d="M32.513 61.044c-2.95 0-5.34-2.35-5.34-5.25s2.39-5.25 5.34-5.25c2.95 0 5.34 2.35 5.34 5.25s-2.39 5.25-5.34 5.25z" fill="#5795D3"/><ellipse cx="32.467" cy="8.466" rx="5.25" ry="5.34" transform="rotate(90 32.467 8.466)" fill="#09539D"/><ellipse cx="32.467" cy="8.466" rx="5.25" ry="5.34" transform="rotate(90 32.467 8.466)" fill="#09539D"/><ellipse cx="32.467" cy="8.466" rx="5.25" ry="5.34" transform="rotate(90 32.467 8.466)" fill="#5795D3"/></svg>