<svg width="80" height="86" viewBox="0 0 80 86" fill="none" xmlns="http://www.w3.org/2000/svg"><g opacity=".65" fill="#6FCF97"><rect width="21.667" height="14.1" rx="2.443"/><rect x="43.333" width="21.667" height="14.1" rx="2.443"/><rect y="46.009" width="21.667" height="14.1" rx="2.443"/><rect x="43.333" y="46.009" width="21.667" height="14.1" rx="2.443"/><rect x="21.667" y="23.005" width="21.667" height="14.1" rx="2.443"/></g><path d="M30.483 51.208c0-1.453 1.758-2.179 2.783-1.15l6.934 6.963 6.95 6.98c1.023 1.026.295 2.777-1.154 2.777H32.112c-.9 0-1.629-.73-1.629-1.629V51.208zM54.489 25.952c0-1.453 1.758-2.179 2.783-1.15l13.884 13.942c1.023 1.027.295 2.778-1.154 2.778H56.118c-.9 0-1.629-.73-1.629-1.628V25.952zM7.259 70.44c0-1.451 1.754-2.178 2.78-1.152l13.853 13.85c1.026 1.027.3 2.781-1.151 2.781H8.887c-.9 0-1.628-.73-1.628-1.629V70.44zM60.586 70.44c0-1.451 1.754-2.178 2.78-1.152l13.853 13.85c1.026 1.027.3 2.781-1.151 2.781H62.214c-.9 0-1.628-.729-1.628-1.628V70.44z" fill="#C4C4C4"/><path d="M75.828 75.966c0 3.171-2.56 5.742-5.716 5.742s-5.715-2.57-5.715-5.742c0-3.171 2.558-5.742 5.715-5.742s5.716 2.57 5.716 5.742z" fill="#09539D"/><path d="M75.828 75.966c0 3.171-2.56 5.742-5.716 5.742s-5.715-2.57-5.715-5.742c0-3.171 2.558-5.742 5.715-5.742s5.716 2.57 5.716 5.742z" fill="#09539D"/><path d="M75.828 75.966c0 3.171-2.56 5.742-5.716 5.742s-5.715-2.57-5.715-5.742c0-3.171 2.558-5.742 5.715-5.742s5.716 2.57 5.716 5.742z" fill="#5795D3"/><ellipse cx="24.387" cy="72.138" rx="6.097" ry="5.742" fill="#09539D"/><ellipse cx="24.387" cy="72.138" rx="6.097" ry="5.742" fill="#09539D"/><ellipse cx="24.387" cy="72.138" rx="6.097" ry="5.742" fill="#5795D3"/><path d="M43.439 56.06c0 3.17-2.56 5.742-5.716 5.742-3.157 0-5.716-2.571-5.716-5.743 0-3.171 2.56-5.742 5.716-5.742 3.157 0 5.716 2.57 5.716 5.742z" fill="#09539D"/><path d="M43.439 56.06c0 3.17-2.56 5.742-5.716 5.742-3.157 0-5.716-2.571-5.716-5.743 0-3.171 2.56-5.742 5.716-5.742 3.157 0 5.716 2.57 5.716 5.742z" fill="#09539D"/><path d="M43.439 56.06c0 3.17-2.56 5.742-5.716 5.742-3.157 0-5.716-2.571-5.716-5.743 0-3.171 2.56-5.742 5.716-5.742 3.157 0 5.716 2.57 5.716 5.742z" fill="#5795D3"/><path d="M11.431 36.918c0 3.171-2.559 5.742-5.715 5.742C2.559 42.66 0 40.089 0 36.918c0-3.172 2.559-5.743 5.716-5.743 3.156 0 5.715 2.571 5.715 5.743z" fill="#09539D"/><path d="M11.431 36.918c0 3.171-2.559 5.742-5.715 5.742C2.559 42.66 0 40.089 0 36.918c0-3.172 2.559-5.743 5.716-5.743 3.156 0 5.715 2.571 5.715 5.743z" fill="#09539D"/><path d="M11.431 36.918c0 3.171-2.559 5.742-5.715 5.742C2.559 42.66 0 40.089 0 36.918c0-3.172 2.559-5.743 5.716-5.743 3.156 0 5.715 2.571 5.715 5.743z" fill="#5795D3"/></svg>