<svg width="65" height="67" viewBox="0 0 65 67" fill="none" xmlns="http://www.w3.org/2000/svg"><path d="M0 3.945c0-1.453 1.758-2.179 2.783-1.15l17.667 17.75c1.022 1.027.295 2.777-1.154 2.777H1.629c-.9 0-1.629-.729-1.629-1.628V3.944zM41.786 3.945c0-1.453 1.758-2.179 2.783-1.15l17.666 17.75c1.023 1.027.295 2.777-1.154 2.777H43.414c-.899 0-1.628-.729-1.628-1.628V3.944zM0 47.48c0-1.453 1.758-2.179 2.783-1.149l17.667 17.75c1.022 1.026.294 2.777-1.155 2.777H1.63c-.9 0-1.629-.73-1.629-1.629v-17.75zM41.785 47.48c0-1.453 1.758-2.179 2.783-1.149l17.667 17.75c1.022 1.026.295 2.777-1.154 2.777H43.414c-.9 0-1.629-.73-1.629-1.629v-17.75z" fill="#C4C4C4"/></svg>