<svg width="65" height="74" viewBox="0 0 65 74" fill="none" xmlns="http://www.w3.org/2000/svg"><path d="M5.2 3.945c0-1.453 1.758-2.179 2.783-1.15l16.738 16.817c1.023 1.027.295 2.778-1.154 2.778H6.829c-.9 0-1.629-.73-1.629-1.629V3.945zM42.715 12.154c0-1.452 1.757-2.178 2.782-1.149l16.739 16.817c1.022 1.027.294 2.777-1.155 2.777H44.343c-.9 0-1.629-.729-1.629-1.628V12.154zM0 39.769c0-1.453 1.758-2.18 2.783-1.15L19.52 55.437c1.022 1.027.295 2.777-1.154 2.777H1.629c-.9 0-1.629-.729-1.629-1.628V39.769zM40.114 54.695c0-1.453 1.758-2.179 2.783-1.149l16.738 16.816c1.023 1.027.295 2.778-1.154 2.778H41.743c-.9 0-1.629-.73-1.629-1.629V54.695z" fill="#C4C4C4"/><ellipse cx="54.599" cy="18.285" rx="5.571" ry="5.597" fill="#09539D"/><ellipse cx="54.599" cy="18.285" rx="5.571" ry="5.597" fill="#09539D"/><ellipse cx="54.599" cy="18.285" rx="5.571" ry="5.597" fill="#5795D3"/><ellipse cx="10.771" cy="46.645" rx="5.571" ry="5.597" fill="#09539D"/><ellipse cx="10.771" cy="46.645" rx="5.571" ry="5.597" fill="#09539D"/><ellipse cx="10.771" cy="46.645" rx="5.571" ry="5.597" fill="#5795D3"/><path d="M63.885 49.63c0 3.092-2.494 5.598-5.571 5.598-3.077 0-5.572-2.506-5.572-5.597 0-3.092 2.495-5.598 5.572-5.598s5.571 2.506 5.571 5.598z" fill="#09539D"/><path d="M63.885 49.63c0 3.092-2.494 5.598-5.571 5.598-3.077 0-5.572-2.506-5.572-5.597 0-3.092 2.495-5.598 5.572-5.598s5.571 2.506 5.571 5.598z" fill="#09539D"/><path d="M63.885 49.63c0 3.092-2.494 5.598-5.571 5.598-3.077 0-5.572-2.506-5.572-5.597 0-3.092 2.495-5.598 5.572-5.598s5.571 2.506 5.571 5.598z" fill="#5795D3"/><path d="M31.2 30.972c0 3.092-2.495 5.598-5.572 5.598s-5.571-2.506-5.571-5.598c0-3.09 2.494-5.597 5.571-5.597 3.077 0 5.572 2.506 5.572 5.597z" fill="#09539D"/><path d="M31.2 30.972c0 3.092-2.495 5.598-5.572 5.598s-5.571-2.506-5.571-5.598c0-3.09 2.494-5.597 5.571-5.597 3.077 0 5.572 2.506 5.572 5.597z" fill="#09539D"/><path d="M31.2 30.972c0 3.092-2.495 5.598-5.572 5.598s-5.571-2.506-5.571-5.598c0-3.09 2.494-5.597 5.571-5.597 3.077 0 5.572 2.506 5.572 5.597z" fill="#5795D3"/></svg>