<svg width="258" height="65" viewBox="0 0 258 65" fill="none" xmlns="http://www.w3.org/2000/svg"><circle cx="32.5" cy="32.5" r="32.5" fill="#00924F"/><path d="M45.273 17.487c-.437-.367-.537-.972-.75-1.472a.192.192 0 0 0-.242.083c-.14.531.047 1.1-.401 1.5-.49-.303-.814-.916-1.168-1.306-.132-.081-.24.071-.315.12-.216.508.506 1.134-.159 1.417-.774.002-1.43-.338-1.78-.956-.197-.09-.226.134-.318.204-.135.857.055 1.763.876 2.296.948.553 1.973.061 2.93.219-2.763.805-4.034 3.254-5.457 5.225-.83 1.231-1.26 2.668-1.955 3.968-.47.733-1.286 1.39-2.234 1.534-2.128.193-4.667-.194-6.127-1.655-.96-1.203-1.667-2.62-2.902-3.639l-1.36-1.275c-1.505-.65-3.092-1.637-4.908-1.409-2.285-.108-4.575 1.382-5.648 3.117-.812 1.354-1.426 3.063-1.32 4.701-.172 1.489.337 2.828.444 4.25.527 1.379.848 2.797 1.793 4.082.617 1.044 1.01 2.222 2.049 3.076.085.05.15.048.23-.013-.28-1.064-.718-2.08-.874-3.16.392.179.646.819 1.197.722-.185-.653-.559-1.286-.784-1.934-.547-1.633-1.17-3.423-.31-5.178-.064 2.334.608 4.514 2.041 6.536.391-.025.008-.324.094-.502-.008-.951-.226-1.994.295-2.924.036.306-.067.639-.018.947-.041 1.146.373 2.208.718 3.282.073.106.164.336.335.279.014-.647.18-1.32.346-1.99.289.728.498 1.47.898 2.18l.22.032c.107-.86.185-1.846.483-2.725.897 1.194 1.974 2.127 3.47 2.462 2.032.538 3.825 1.424 5.523 2.464.301.095.664.15.927-.04-.356.548-1.226.92-1.329 1.613.282 1.34.704 2.715.25 4.136-.329.203-.691.424-1.117.347-.104.056-.183.128-.178.236.262.173.8.075.99.417.178.255.177.543.215.837-.608.327-1.559.712-1.483 1.445.322.06.562-.372.932-.352 1.183-.048 1.345 1.36 2.497 1.33.584.293 1.667.134 1.682.977.177.052.24-.144.325-.238.124-.306.197-.703-.107-.93.83.27 2.134-.155 2.587.707.32.073.213-.353.256-.515-.017-.975-1.3-.81-1.993-1.169.046-.244-.132-.5-.368-.596-.808-.315-1.66.108-2.373-.277l-.099-.328.056-3.428c.127-.966 1.502-1.261 2.302-1.692.614.635.929 1.38 1.343 2.08.191.617-.245 1.236-.426 1.774.292.224.988-.007 1.036.445.553.89-.786 1.286-.754 2.108.267.064.4-.287.67-.306l.61-.196c.137.405.225.864.608 1.162 1.06.462 2.46.243 3.357.86.282.14-.14.544.348.426.215-.16.258-.454.252-.707l-.376-.55c.524-.028 1.13.004 1.63.189.2.138.24.42.452.5.237-.203.17-.622.032-.883-.221-.455-.763-.622-1.245-.682a1.426 1.426 0 0 0-.607-.67c-1.007-.178-1.864.341-2.877-.007-.624-.442-.584-1.157-.835-1.736-.195-1.232-1.087-2.377-.45-3.71.507-.788 1.148-1.507 1.765-2.242l.053-.137c2.436-.481 4.734-2.295 6.252-3.998 2.25-2.83 1.484-6.708 1.399-9.88-.004-.482-.146-.924-.108-1.41.819-.394 1.562-.94 1.706-1.784-.141-.959-1.12-1.78-.85-2.785.507-.08 1.122-.021 1.547.272a.298.298 0 0 0 .264-.057c.051-.628-.614-1.066-1.037-1.503.377-.243 1.036-.407 1.075-.906.04-.714-.06-1.391-.157-2.079-.025-.076-.14-.105-.231-.12-.27.308-.253.78-.56 1.069-.12.15-.22.038-.31-.047l-.11-.27c.04-.57.025-1.125-.004-1.683-.586-.005-.383.832-.93 1.048-.456-.621-.361-1.412-.591-2.107-.76.208-.42 1.028-.825 1.484z" fill="#fff"/><mask id="a" fill="#fff"><path fill-rule="evenodd" clip-rule="evenodd" d="M56 64.849c10.57-5.777 17.874-18.125 17.874-32.425C73.874 18.124 66.571 5.777 56 0h169.536c17.908 0 32.425 14.517 32.425 32.424 0 17.908-14.517 32.425-32.425 32.425H56z"/></mask><path fill-rule="evenodd" clip-rule="evenodd" d="M56 64.849c10.57-5.777 17.874-18.125 17.874-32.425C73.874 18.124 66.571 5.777 56 0h169.536c17.908 0 32.425 14.517 32.425 32.424 0 17.908-14.517 32.425-32.425 32.425H56z" fill="#FBFBFB"/><path d="M56 64.849l-1.439-2.633L56 67.85v-3zM56 0v-3l-1.439 5.633L56 0zm14.874 32.424c0 13.313-6.797 24.592-16.313 29.792l2.878 5.265c11.625-6.353 19.435-19.77 19.435-35.057h-6zM54.561 2.633c9.516 5.2 16.313 16.48 16.313 29.791h6c0-15.287-7.81-28.703-19.435-35.057L54.56 2.633zM56 3h169.536v-6H56v6zm169.536 0c16.251 0 29.425 13.174 29.425 29.424h6C260.961 12.86 245.101-3 225.536-3v6zm29.425 29.424c0 16.25-13.174 29.425-29.425 29.425v6c19.565 0 35.425-15.86 35.425-35.425h-6zM225.536 61.85H56v6h169.536v-6z" fill="#00924F" mask="url(#a)"/></svg>