<svg width="258" height="65" viewBox="0 0 258 65" fill="none" xmlns="http://www.w3.org/2000/svg"><circle r="32.5" transform="matrix(-1 0 0 1 225.5 32.5)" fill="#00924F"/><mask id="a" fill="#fff"><path fill-rule="evenodd" clip-rule="evenodd" d="M201.961 64.849c-10.571-5.777-17.875-18.125-17.875-32.425 0-14.3 7.304-26.647 17.875-32.424H32.424C14.517 0 0 14.517 0 32.424 0 50.332 14.517 64.85 32.424 64.85h169.537z"/></mask><path fill-rule="evenodd" clip-rule="evenodd" d="M201.961 64.849c-10.571-5.777-17.875-18.125-17.875-32.425 0-14.3 7.304-26.647 17.875-32.424H32.424C14.517 0 0 14.517 0 32.424 0 50.332 14.517 64.85 32.424 64.85h169.537z" fill="#FBFBFB"/><path d="M201.961 64.849l1.438-2.633-1.438 5.633v-3zm0-64.849v-3l1.438 5.633L201.961 0zm-14.875 32.424c0 13.313 6.797 24.592 16.313 29.792l-2.877 5.265c-11.626-6.353-19.436-19.769-19.436-35.057h6zm16.313-29.791c-9.516 5.2-16.313 16.48-16.313 29.791h-6c0-15.287 7.81-28.703 19.436-35.057l2.877 5.266zM201.961 3H32.424v-6h169.537v6zM32.424 3C16.174 3 3 16.174 3 32.424h-6C-3 12.86 12.86-3 32.424-3v6zM3 32.424C3 48.674 16.174 61.85 32.424 61.85v6C12.86 67.849-3 51.989-3 32.424h6zM32.424 61.85h169.537v6H32.424v-6z" fill="#00924F" mask="url(#a)"/><path d="M234.067 21.316c2.312-.126 4.562-.483 6.789-.224 1.472.12 2.707 1.04 3.924 1.939.41-.264.971-.49 1.488-.327.337.089.67.37.775.705.047.372-.12.718-.384.953.054.216.292.408.513.432.24.137.613-.108.821.093.041.165-.106.249-.219.299-.117-.004-.168.101-.267.127-.459.16-.998.154-1.38-.138.282 1.515.198 3.251-.535 4.684-.507 1.05-1.279 2.026-1.958 2.923-.38.177-.24.54-.262.856.087.613.201 1.178.557 1.68.286 1.022-.2 1.97-.226 2.994-.058 1.173-.149 2.318-.025 3.504-.024.37-.217.766-.291 1.104-.164.3-.55.34-.859.447-.656.143-1.393.187-1.921-.236-.065-.324.255-.548.381-.837.182-.425.665-.735.597-1.235.032-.371.132-.758.067-1.158l.026-.126c-.103-1.133-.041-1.815-.324-2.962-.034-.104-.09-.19-.138-.278-.323.578-.627 1.177-.999 1.729-.58 1.325-1.463 2.435-1.987 3.84.141.608-.498.987-.627 1.553-.303.46-1.119.343-1.64.288-.307-.107-.63-.213-.901-.409.007-.084.097-.116.135-.205.321-.662.668-1.158 1.001-1.852.543-1.306 1.696-2.45 1.703-3.88.051-.412.061-.912.14-1.35.055-.75.236-1.56.235-2.32-.36.144-.75.299-1.153.393-1.259.35-2.519.691-3.902.823-1.465.24-3.039.491-4.505.424-1.985.116-3.871-.086-5.724-.42.257 1.202.396 2.386.244 3.545.172.973.594 2.036.611 3.017-.019.425-.167.8-.168 1.238-.177.248-.334.54-.526.867-.73.258-1.57.212-2.226-.098-.162-.053-.038-.21-.062-.293.256-.463.425-.864.706-1.315.365-.613.026-1.393.028-2.13-.296-1.26-.75-2.473-1.423-3.55-.211-.224-.348-.487-.573-.702-.217.913-.625 1.79-1.117 2.685-.132.758-.434 1.526-.462 2.311.027.627-.229 1.168-.187 1.8-.1.31-.36.513-.696.585-.504.182-.955-.034-1.462.048a.78.78 0 0 1-.375-.154c-.062-.3.05-.42.179-.678.123-.474.43-.597.347-1.087-.25-.904.503-1.472.556-2.383.131-.466.253-1.239.228-1.858.06-.475.037-.918.049-1.403-.018-.02-.047-.003-.071-.008-.057.052-.138.099-.211.152-.743.428-1.478.786-2.032 1.387-.818.766-2.109.958-3.04 1.528-.429.304-1.038.604-1.489.841-.596.267-1.196.504-1.93.578-.233.078-.401.271-.652.258-.353-.248-.654.235-1.008-.02-.602-.01-1.207-.27-1.623-.597-.051-.187.001-.292.129-.413a.335.335 0 0 1 .212-.06c.215.048.199-.188.335-.302.466-.4.661-1.073.92-1.582.143-.721.611-1.475.663-2.248.032-.295.21-.605.156-.906.024.005.029-.019.044-.028-1.062-.223-2.105-.578-3.029-1.13-.07-.078-.034-.174.049-.205.199-.112.472-.193.684-.33-.088-.099-.344-.004-.302-.2.157-.138.381-.161.566-.256.83-.353 1.752-.638 2.653-.898.91-1.381 2.278-2.556 3.543-3.674a14.359 14.359 0 0 1 2.872-2.463c.338-.28.637-.555 1.013-.762.698-.34 1.35-.758 2.145-.907.801-.181 1.551-.326 2.407-.343.547-.063 1.069-.077 1.616-.147l1.879-.382 5.235-.612c.767.022 1.55-.103 2.307-.248 1.124.001 2.248-.22 3.363-.301z" fill="#fff"/></svg>