<svg width="76" height="69" viewBox="0 0 76 69" fill="none" xmlns="http://www.w3.org/2000/svg">
<g filter="url(#filter0_d)">
<path d="M9.26276 45V25.5C9.26276 23.8431 10.6059 22.5 12.2628 22.5H34.8917C36.5485 22.5 37.8917 21.1569 37.8917 19.5V12.9724C37.8917 10.3389 41.0422 8.98337 42.9544 10.7941L65.7276 32.3589C66.9625 33.5283 66.9794 35.4893 65.7649 36.6797L42.9916 59.0012C41.0932 60.8619 37.8917 59.517 37.8917 56.8587V51C37.8917 49.3431 36.5485 48 34.8917 48H12.2628C10.6059 48 9.26276 46.6569 9.26276 45Z" fill="#6C6C6C"/>
<path d="M9.26276 45V25.5C9.26276 23.8431 10.6059 22.5 12.2628 22.5H34.8917C36.5485 22.5 37.8917 21.1569 37.8917 19.5V12.9724C37.8917 10.3389 41.0422 8.98337 42.9544 10.7941L65.7276 32.3589C66.9625 33.5283 66.9794 35.4893 65.7649 36.6797L42.9916 59.0012C41.0932 60.8619 37.8917 59.517 37.8917 56.8587V51C37.8917 49.3431 36.5485 48 34.8917 48H12.2628C10.6059 48 9.26276 46.6569 9.26276 45Z" stroke="white" stroke-width="2"/>
</g>
<defs>
<filter id="filter0_d" x="0.262756" y="0.964355" width="75.4021" height="67.9023" filterUnits="userSpaceOnUse" color-interpolation-filters="sRGB">
<feFlood flood-opacity="0" result="BackgroundImageFix"/>
<feColorMatrix in="SourceAlpha" type="matrix" values="0 0 0 0 0 0 0 0 0 0 0 0 0 0 0 0 0 0 127 0"/>
<feOffset/>
<feGaussianBlur stdDeviation="4"/>
<feColorMatrix type="matrix" values="0 0 0 0 0 0 0 0 0 0 0 0 0 0 0 0 0 0 0.15 0"/>
<feBlend mode="normal" in2="BackgroundImageFix" result="effect1_dropShadow"/>
<feBlend mode="normal" in="SourceGraphic" in2="effect1_dropShadow" result="shape"/>
</filter>
</defs>
</svg>
