<svg width="54" height="54" viewBox="0 0 54 54" fill="none" xmlns="http://www.w3.org/2000/svg">
<rect opacity="0.5" width="54" height="54" rx="15" fill="#6FCF97"/>
<path fill-rule="evenodd" clip-rule="evenodd" d="M17.3011 44H37.6309C37.9139 43.8852 39.0678 43.9665 40.3388 43.0908C41.0848 42.5773 41.5906 42.0202 42.0717 41.1445C42.7919 39.836 43.0456 36.4556 42.9934 34.6832C42.8463 29.4676 40.943 25.0411 37.6297 21.3947L36.7571 20.5411C36.6282 20.4239 36.5673 20.3857 36.3205 20.3874C30.631 20.4245 24.8413 20.3893 19.1441 20.3893C18.3788 20.3893 18.4391 20.2715 17.5929 21.1496C17.0385 21.7253 16.483 22.3906 15.9914 23.0427C12.4267 27.7771 11.2857 33.6293 12.4243 39.607C12.606 40.5599 12.9031 41.3088 13.4862 42.0148L13.9051 42.4775C15.2518 43.8972 17.001 43.8655 17.3011 44ZM33.2235 32.3303C32.9973 32.4469 32.8895 32.6167 32.4242 32.79C32.1072 32.9078 31.7462 32.9753 31.3705 32.9771C29.8422 32.9837 28.5202 31.8444 27.2333 32.5037C25.4659 33.4093 27.0376 36.9923 31.895 33.548C32.2373 33.3053 33.0782 32.6477 33.2235 32.3303ZM30.5179 35.0747C30.4306 35.1865 29.9952 35.4704 29.7872 35.5553C28.6275 36.0281 27.708 35.7286 26.6303 35.3598C24.2593 34.5486 23.3786 36.0478 23.93 37.0413C24.2072 37.5405 24.8559 37.8645 25.6582 37.831C26.8659 37.7808 28.3016 37.0007 29.2146 36.3067C29.6113 36.006 30.3181 35.4585 30.5179 35.0747ZM35.918 29.5883C35.3162 29.9643 35.005 30.2405 34.0633 30.2525C32.583 30.2722 31.1877 29.1191 29.933 29.7653C28.4165 30.546 29.265 33.4541 33.0108 31.7529C33.5698 31.4988 34.1629 31.127 34.5948 30.8084C34.9517 30.5454 35.7598 29.9159 35.918 29.5883ZM24.1843 28.7802C23.9142 28.88 23.2145 29.8011 23.0006 30.1168C22.6372 30.6554 22.3953 31.0786 22.0864 31.7074C20.8658 34.1972 22.0296 35.9959 23.334 35.5057C24.39 35.1088 24.3173 33.716 24.0214 32.7888C23.6569 31.6459 23.2373 30.4204 23.9324 29.1747C24.0156 29.0258 24.1257 28.9195 24.1843 28.7802ZM26.979 25.9324C26.6901 26.0459 26.0344 26.9217 25.7958 27.2511C25.0006 28.3516 23.8603 30.5179 24.5254 31.9436C25.2567 33.5127 27.7015 32.8582 26.7534 29.8884C26.5307 29.1908 26.308 28.66 26.3221 27.8166C26.3368 26.8846 26.5723 26.5624 26.979 25.9324ZM29.6383 23.2221C29.0758 23.4516 27.8791 25.4177 27.5445 26.141C27.2749 26.7238 27.047 27.373 27.0066 28.1131C26.8565 30.8652 30.5402 30.7319 29.4526 27.2098C29.0898 26.0358 28.6761 24.9215 29.3728 23.6262C29.4608 23.463 29.5809 23.3566 29.6383 23.2221ZM34.8274 24.3662C34.4336 24.4134 33.5605 24.863 33.1936 25.0369C32.0462 25.5815 29.3506 27.1704 30.7125 28.7108C31.128 29.1801 31.7409 29.2464 32.3217 28.8226C33.2974 28.1113 34.5209 25.4984 34.8274 24.3662ZM21.559 36.5046C21.4037 36.5877 19.709 38.745 19.5009 39.0188C19.3673 39.1951 19.1634 39.329 19.2794 39.6698C19.3445 39.8599 19.5461 40.1031 19.692 40.1743C19.982 40.3159 20.1907 40.0888 20.3231 39.9687L22.0231 38.5113C22.9502 37.6959 23.0639 37.8119 22.4263 37.3863C21.8508 37.0019 21.7846 36.3826 21.559 36.5046ZM33.7287 10H32.6451C32.5795 10.0281 31.7345 10.1363 31.1789 10.3222C28.9328 11.0742 28.2723 12.6756 26.1046 11.4735C25.7073 11.2529 25.3722 11.0628 24.9749 10.8446C24.5969 10.6366 24.1527 10.4286 23.7296 10.2935C23.1711 10.1147 22.3402 10.0215 22.2839 10H21.2631C21.1131 10.0681 20.1473 10.1273 19.3251 10.4435C18.7092 10.6809 18.2615 10.9194 17.7388 11.238L16.7256 11.9864C16.3265 12.3319 15.4136 13.155 15.2395 13.5633C15.3192 13.6816 15.4018 13.7265 15.5061 13.8227C16.0089 14.2884 16.561 14.8622 17.0878 15.3273C17.1903 15.4176 17.2413 15.4935 17.3415 15.5874L19.1974 17.3322C19.7002 17.7865 19.3316 17.7298 20.3454 17.7298C25.2403 17.7298 30.2413 17.6909 35.1192 17.7316C35.5482 17.7352 35.4961 17.5803 36.0457 17.1075C36.1536 17.0142 36.1969 16.9461 36.2995 16.8475L39.4663 13.8413C39.5764 13.7414 39.6725 13.6858 39.751 13.5633C39.6831 13.3977 39.3415 13.0283 39.2295 12.8962L38.3066 12.0181C35.758 9.91988 34.1939 10.2086 33.7287 10Z" fill="#00924F"/>
</svg>
