<svg width="47" height="47" viewBox="0 0 47 47" fill="none" xmlns="http://www.w3.org/2000/svg">
<path fill-rule="evenodd" clip-rule="evenodd" d="M15.1038 36H30.843C31.0621 35.9122 31.9554 35.9744 32.9395 35.3047C33.517 34.9121 33.9086 34.486 34.281 33.8164C34.8386 32.8157 35.035 30.2307 34.9947 28.8754C34.8808 24.887 33.4073 21.502 30.8421 18.7136L30.1666 18.0608C30.0668 17.9712 30.0196 17.942 29.8286 17.9433C25.4237 17.9717 20.9414 17.9447 16.5307 17.9447C15.9381 17.9447 15.9848 17.8547 15.3297 18.5262C14.9005 18.9664 14.4705 19.4751 14.0898 19.9739C11.3301 23.5942 10.4468 28.0695 11.3283 32.6407C11.4689 33.3693 11.6989 33.9421 12.1503 34.4819L12.4747 34.8357C13.5173 35.9214 14.8715 35.8971 15.1038 36ZM27.4309 27.0761C27.2557 27.1653 27.1723 27.2951 26.812 27.4277C26.5666 27.5177 26.2871 27.5694 25.9963 27.5707C24.8131 27.5758 23.7896 26.7045 22.7933 27.2087C21.425 27.9012 22.6418 30.6412 26.4024 28.0073C26.6673 27.8217 27.3183 27.3189 27.4309 27.0761ZM25.3362 29.1748C25.2686 29.2603 24.9315 29.4774 24.7705 29.5423C23.8726 29.9039 23.1608 29.6748 22.3265 29.3928C20.4909 28.7725 19.809 29.9189 20.2359 30.6787C20.4505 31.0604 20.9527 31.3081 21.5738 31.2825C22.5089 31.2441 23.6204 30.6476 24.3272 30.1169C24.6343 29.8869 25.1815 29.4682 25.3362 29.1748ZM29.5169 24.9793C29.051 25.2668 28.8101 25.4781 28.081 25.4872C26.935 25.5023 25.8547 24.6205 24.8834 25.1146C23.7093 25.7116 24.3662 27.9355 27.2662 26.6345C27.699 26.4403 28.1581 26.156 28.4925 25.9123C28.7688 25.7112 29.3944 25.2298 29.5169 24.9793ZM20.4328 24.3613C20.2236 24.4377 19.6819 25.142 19.5163 25.3834C19.235 25.7953 19.0477 26.1189 18.8086 26.5998C17.8636 28.5037 18.7646 29.8792 19.7745 29.5044C20.592 29.2008 20.5358 28.1357 20.3066 27.4267C20.0245 26.5527 19.6996 25.6156 20.2377 24.663C20.3021 24.5492 20.3874 24.4678 20.4328 24.3613ZM22.5964 22.1836C22.3728 22.2704 21.8651 22.9401 21.6804 23.192C21.0648 24.0336 20.1819 25.6902 20.6968 26.7804C21.263 27.9803 23.1558 27.4798 22.4217 25.2088C22.2493 24.6754 22.077 24.2694 22.0878 23.6244C22.0992 22.9118 22.2816 22.6654 22.5964 22.1836ZM24.6552 20.111C24.2197 20.2865 23.2933 21.79 23.0342 22.3431C22.8255 22.7888 22.649 23.2852 22.6177 23.8512C22.5016 25.9557 25.3535 25.8538 24.5114 23.1604C24.2306 22.2627 23.9103 21.4106 24.4497 20.42C24.5178 20.2952 24.6108 20.2138 24.6552 20.111ZM28.6726 20.9859C28.3677 21.022 27.6917 21.3658 27.4077 21.4988C26.5194 21.9153 24.4325 23.1303 25.4868 24.3083C25.8085 24.6671 26.2831 24.7179 26.7327 24.3938C27.488 23.8498 28.4353 21.8517 28.6726 20.9859ZM18.4003 30.2682C18.2801 30.3317 16.968 31.9815 16.8069 32.1908C16.7035 32.3257 16.5456 32.4281 16.6354 32.6887C16.6858 32.834 16.8419 33.02 16.9548 33.0744C17.1794 33.1828 17.3409 33.0091 17.4435 32.9172L18.7596 31.8028C19.4773 31.1792 19.5653 31.2679 19.0717 30.9424C18.6262 30.6485 18.575 30.1749 18.4003 30.2682ZM27.8219 10H26.9831C26.9323 10.0215 26.2781 10.1042 25.848 10.2464C24.109 10.8214 23.5977 12.046 21.9195 11.1268C21.6119 10.9581 21.3524 10.8128 21.0448 10.6459C20.7522 10.4868 20.4083 10.3277 20.0807 10.2244C19.6484 10.0877 19.0051 10.0165 18.9615 10H18.1712C18.055 10.0521 17.3074 10.0974 16.6708 10.3392C16.194 10.5207 15.8474 10.703 15.4427 10.9467L14.6583 11.519C14.3493 11.7832 13.6425 12.4126 13.5078 12.7249C13.5695 12.8154 13.6334 12.8496 13.7142 12.9232C14.1034 13.2793 14.5308 13.7182 14.9387 14.0738C15.0181 14.1428 15.0576 14.2009 15.1351 14.2727L16.5719 15.607C16.9612 15.9544 16.6758 15.911 17.4607 15.911C21.2503 15.911 25.122 15.8813 28.8985 15.9124C29.2306 15.9151 29.1903 15.7967 29.6158 15.4351C29.6993 15.3638 29.7329 15.3117 29.8123 15.2363L32.264 12.9374C32.3493 12.8611 32.4236 12.8186 32.4844 12.7249C32.4318 12.5982 32.1673 12.3157 32.0807 12.2147L31.3661 11.5432C29.3931 9.93874 28.1822 10.1595 27.8219 10Z" fill="#00924F"/>
<circle r="21.5799" transform="matrix(-1 0 0 1 23.3551 23.5132)" stroke="#00924F" stroke-width="2.23492"/>
</svg>
