<svg width="46" height="47" viewBox="0 0 46 47" fill="none" xmlns="http://www.w3.org/2000/svg">
<path fill-rule="evenodd" clip-rule="evenodd" d="M12.661 26.1298C12.4751 26.8523 12.3419 27.7355 12.8972 28.2721C13.6073 28.5154 19.632 28.5243 20.1177 28.2019C20.5188 27.6177 20.4162 26.8116 20.2585 26.1269C19.3435 25.7557 13.547 25.6525 12.661 26.1298ZM16.5314 30.8264C17.2725 31.7031 18.0897 33.2552 18.0805 34.1589C18.0728 34.9327 17.5779 35.5916 16.8895 35.8478C17.6709 34.9017 17.1784 32.4515 16.5314 30.8264ZM20.9964 11.868C20.1583 11.3895 19.4365 10.5899 18.0233 10.9748C15.7556 11.5916 15.9986 15.4551 18.7846 15.3664C20.073 15.3252 20.5687 14.3384 21.7702 14.0531V15.995L20.7003 16.2653C20.6222 16.5263 20.5993 16.7147 20.5574 17.0318C20.3466 18.6352 19.5781 17.6548 17.6994 18.5565C15.1114 19.7983 13.7164 21.9806 13.4239 25.0574L19.3849 25.057C20.205 24.2303 19.2449 23.983 22.3146 23.9596L28.7364 23.9652C29.0792 24.8601 29.3484 25.5044 29.974 25.9462C30.5885 26.3799 31.934 26.7829 32.6204 26.4779C33.0357 26.1451 32.9286 15.5705 32.6333 15.345C31.8587 15.0339 30.7583 15.416 30.0622 15.8295C29.119 16.3903 29.1923 16.9899 28.8217 17.5333C28.4137 18.1304 26.4803 18.0054 25.8309 17.7988C25.5891 17.2408 25.8647 16.8551 25.5649 16.4105C25.2728 15.978 24.798 16.1914 24.1393 16.0785L24.0987 14.0967C25.0905 14.1859 25.6643 15.2143 26.9032 15.349C29.6698 15.65 30.2457 11.7651 27.9835 11.024C26.5306 10.5479 25.6828 11.4065 24.8052 11.8741C24.2661 11.2761 24.1715 10.6762 22.9008 10.6843C21.7468 10.692 21.5795 11.2443 21.2117 11.659C21.0447 11.8474 21.1614 11.7466 20.9964 11.868ZM16.197 29.6701C17.1912 30.5867 18.5195 32.7113 18.5995 33.9471C18.6796 35.1825 17.7964 36.2524 16.6275 36.3368C15.4586 36.4215 14.4463 35.4883 14.3666 34.2525C14.3453 33.9205 14.4008 33.4032 14.5976 32.9687C15.1327 31.7878 16.2501 30.4919 16.197 29.6701Z" fill="#09539D"/>
<circle cx="22.6974" cy="23.5132" r="21.5799" stroke="#0B56A4" stroke-width="2.23492"/>
</svg>
