<svg width="84" height="84" viewBox="0 0 84 84" fill="none" xmlns="http://www.w3.org/2000/svg">
<circle cx="8.32222" cy="8.95784" r="8.31831" fill="#6FCF97"/>
<circle cx="8.32222" cy="8.95784" r="8.31831" fill="#6FCF97"/>
<circle cx="8.32222" cy="8.95784" r="8.31831" fill="#6FCF97"/>
<circle cx="41.5955" cy="8.95784" r="8.31831" fill="#6FCF97"/>
<circle cx="41.5955" cy="8.95784" r="8.31831" fill="#6FCF97"/>
<circle cx="41.5955" cy="8.95784" r="8.31831" fill="#6FCF97"/>
<circle cx="74.8687" cy="8.95784" r="8.31831" fill="#6FCF97"/>
<circle cx="74.8687" cy="8.95784" r="8.31831" fill="#6FCF97"/>
<circle cx="74.8687" cy="8.95784" r="8.31831" fill="#6FCF97"/>
<circle cx="8.32222" cy="42.2312" r="8.31831" fill="#6FCF97"/>
<circle cx="8.32222" cy="42.2312" r="8.31831" fill="#6FCF97"/>
<circle cx="8.32222" cy="42.2312" r="8.31831" fill="#6FCF97"/>
<circle cx="41.5955" cy="42.2312" r="8.31831" fill="#6FCF97"/>
<circle cx="41.5955" cy="42.2312" r="8.31831" fill="#6FCF97"/>
<circle cx="41.5955" cy="42.2312" r="8.31831" fill="#6FCF97"/>
<circle cx="74.8687" cy="42.2312" r="8.31831" fill="#6FCF97"/>
<circle cx="74.8687" cy="42.2312" r="8.31831" fill="#6FCF97"/>
<circle cx="74.8687" cy="42.2312" r="8.31831" fill="#6FCF97"/>
<circle cx="8.32222" cy="75.5043" r="8.31831" fill="#6FCF97"/>
<circle cx="8.32222" cy="75.5043" r="8.31831" fill="#6FCF97"/>
<circle cx="8.32222" cy="75.5043" r="8.31831" fill="#6FCF97"/>
<circle cx="41.5955" cy="75.5043" r="8.31831" fill="#6FCF97"/>
<circle cx="41.5955" cy="75.5043" r="8.31831" fill="#6FCF97"/>
<circle cx="41.5955" cy="75.5043" r="8.31831" fill="#6FCF97"/>
<circle cx="74.8687" cy="75.5043" r="8.31831" fill="#6FCF97"/>
<circle cx="74.8687" cy="75.5043" r="8.31831" fill="#6FCF97"/>
<circle cx="74.8687" cy="75.5043" r="8.31831" fill="#6FCF97"/>
</svg>
