<svg width="18" height="18" viewBox="0 0 18 18" fill="none" xmlns="http://www.w3.org/2000/svg">
<path d="M0.525538 0.0724759C0.300537 0.173681 0.0755369 0.471783 0.0250266 0.73609C-0.0592796 1.19729 -0.132381 1.1128 3.92809 5.18467L7.72996 8.99222L3.9224 12.8053C1.83036 14.8975 0.0924349 16.6691 0.0586389 16.7366C-0.0313612 16.9166 -0.0144632 17.2991 0.086741 17.5184C0.261047 17.8839 0.806558 18.0865 1.21156 17.9346C1.29587 17.9008 3.08999 16.1685 5.19893 14.082L9.0289 10.2913L12.7973 14.0651C14.9627 16.2304 16.6385 17.867 16.7397 17.912C17.5045 18.2439 18.275 17.4227 17.9038 16.6803C17.8531 16.579 16.1266 14.8073 14.0627 12.7434L10.317 8.98102L14.0965 5.23536C18.1681 1.18609 18.0614 1.3097 17.9714 0.814885C17.8702 0.269374 17.1897 -0.0568316 16.6835 0.196272C16.5823 0.246782 14.8275 1.96229 12.7804 4.00383L9.05167 7.72689L5.27222 3.94744C3.19119 1.87211 1.40846 0.134373 1.30725 0.0836805C1.08795 -0.023218 0.761742 -0.028728 0.525538 0.0724759Z" fill="white"/>
</svg>
