<svg width="50" height="50" viewBox="0 0 50 50" fill="none" xmlns="http://www.w3.org/2000/svg">
<g filter="url(#filter0_d)">
<path fill-rule="evenodd" clip-rule="evenodd" d="M41.8462 24.2043C41.8462 22.8551 40.7525 21.7614 39.4033 21.7614L28.0197 21.7614L28.0197 10.4429C28.0197 9.09373 26.926 8 25.5768 8L23.9562 8C22.607 8 21.5133 9.09373 21.5133 10.4429L21.5133 21.7614L10.1304 21.7614C8.78125 21.7614 7.68752 22.8551 7.68752 24.2043L7.68752 25.7947C7.68752 27.1439 8.78125 28.2376 10.1304 28.2376L21.5133 28.2376L21.5133 39.5571C21.5133 40.9063 22.607 42 23.9562 42L25.5768 42C26.926 42 28.0197 40.9063 28.0197 39.5571L28.0197 28.2376L39.4033 28.2376C40.7525 28.2376 41.8462 27.1439 41.8462 25.7947L41.8462 24.2043Z" fill="#6C6C6C"/>
<path d="M39.4033 21.7614L39.4033 20.9471L39.4033 21.7614ZM28.0197 21.7614L27.2054 21.7614L27.2054 22.5757L28.0197 22.5757L28.0197 21.7614ZM21.5133 21.7614L21.5133 22.5757L22.3276 22.5757L22.3276 21.7614L21.5133 21.7614ZM10.1304 21.7614L10.1304 20.9471L10.1304 21.7614ZM10.1304 28.2376L10.1304 27.4233L10.1304 28.2376ZM21.5133 28.2376L22.3276 28.2376L22.3276 27.4233L21.5133 27.4233L21.5133 28.2376ZM28.0197 28.2376L28.0197 27.4233L27.2054 27.4233L27.2054 28.2376L28.0197 28.2376ZM39.4033 28.2376L39.4033 27.4233L39.4033 28.2376ZM39.4033 22.5757C40.3027 22.5757 41.0319 23.3049 41.0319 24.2043L42.6605 24.2043C42.6605 22.4054 41.2022 20.9471 39.4033 20.9471L39.4033 22.5757ZM28.0197 22.5757L39.4033 22.5757L39.4033 20.9471L28.0197 20.9471L28.0197 22.5757ZM27.2054 10.4429L27.2054 21.7614L28.834 21.7614L28.834 10.4429L27.2054 10.4429ZM25.5768 8.8143C26.4762 8.8143 27.2054 9.54345 27.2054 10.4429L28.834 10.4429C28.834 8.644 27.3757 7.1857 25.5768 7.1857L25.5768 8.8143ZM23.9562 8.8143L25.5768 8.8143L25.5768 7.1857L23.9562 7.1857L23.9562 8.8143ZM22.3276 10.4429C22.3276 9.54345 23.0567 8.8143 23.9562 8.8143L23.9562 7.1857C22.1573 7.1857 20.699 8.644 20.699 10.4429L22.3276 10.4429ZM22.3276 21.7614L22.3276 10.4429L20.699 10.4429L20.699 21.7614L22.3276 21.7614ZM10.1304 22.5757L21.5133 22.5757L21.5133 20.9471L10.1304 20.9471L10.1304 22.5757ZM8.50182 24.2043C8.50182 23.3049 9.23098 22.5757 10.1304 22.5757L10.1304 20.9471C8.33152 20.9471 6.87322 22.4054 6.87322 24.2043L8.50182 24.2043ZM8.50182 25.7947L8.50182 24.2043L6.87322 24.2043L6.87322 25.7947L8.50182 25.7947ZM10.1304 27.4233C9.23097 27.4233 8.50182 26.6941 8.50182 25.7947L6.87322 25.7947C6.87322 27.5936 8.33152 29.0519 10.1304 29.0519L10.1304 27.4233ZM21.5133 27.4233L10.1304 27.4233L10.1304 29.0519L21.5133 29.0519L21.5133 27.4233ZM22.3276 39.5571L22.3276 28.2376L20.699 28.2376L20.699 39.5571L22.3276 39.5571ZM23.9562 41.1857C23.0567 41.1857 22.3276 40.4565 22.3276 39.5571L20.699 39.5571C20.699 41.356 22.1573 42.8143 23.9562 42.8143L23.9562 41.1857ZM25.5768 41.1857L23.9562 41.1857L23.9562 42.8143L25.5768 42.8143L25.5768 41.1857ZM27.2054 39.5571C27.2054 40.4565 26.4762 41.1857 25.5768 41.1857L25.5768 42.8143C27.3757 42.8143 28.834 41.356 28.834 39.5571L27.2054 39.5571ZM27.2054 28.2376L27.2054 39.5571L28.834 39.5571L28.834 28.2376L27.2054 28.2376ZM39.4033 27.4233L28.0197 27.4233L28.0197 29.0519L39.4033 29.0519L39.4033 27.4233ZM41.0319 25.7947C41.0319 26.6941 40.3027 27.4233 39.4033 27.4233L39.4033 29.0519C41.2022 29.0519 42.6605 27.5936 42.6605 25.7947L41.0319 25.7947ZM41.0319 24.2043L41.0319 25.7947L42.6605 25.7947L42.6605 24.2043L41.0319 24.2043Z" fill="white"/>
</g>
<defs>
<filter id="filter0_d" x="0.358881" y="0.671137" width="48.8161" height="48.6574" filterUnits="userSpaceOnUse" color-interpolation-filters="sRGB">
<feFlood flood-opacity="0" result="BackgroundImageFix"/>
<feColorMatrix in="SourceAlpha" type="matrix" values="0 0 0 0 0 0 0 0 0 0 0 0 0 0 0 0 0 0 127 0"/>
<feOffset/>
<feGaussianBlur stdDeviation="3.2572"/>
<feColorMatrix type="matrix" values="0 0 0 0 0 0 0 0 0 0 0 0 0 0 0 0 0 0 0.15 0"/>
<feBlend mode="normal" in2="BackgroundImageFix" result="effect1_dropShadow"/>
<feBlend mode="normal" in="SourceGraphic" in2="effect1_dropShadow" result="shape"/>
</filter>
</defs>
</svg>
