<svg width="65" height="67" viewBox="0 0 65 67" fill="none" xmlns="http://www.w3.org/2000/svg">
<path d="M0.000488281 3.94478C0.000488281 2.49202 1.7585 1.76622 2.78336 2.79586L20.45 20.5449C21.4723 21.572 20.7448 23.3224 19.2957 23.3224L1.62909 23.3224C0.729639 23.3224 0.000488281 22.5933 0.000488281 21.6938L0.000488281 3.94478Z" fill="#C4C4C4"/>
<path d="M41.7859 3.94478C41.7859 2.49202 43.5439 1.76622 44.5688 2.79586L62.2354 20.5449C63.2577 21.572 62.5302 23.3224 61.0811 23.3224L43.4145 23.3224C42.515 23.3224 41.7859 22.5933 41.7859 21.6938V3.94478Z" fill="#C4C4C4"/>
<path d="M0 47.4799C0 46.0272 1.75801 45.3014 2.78288 46.331L20.4495 64.0801C21.4718 65.1071 20.7443 66.8576 19.2952 66.8576H1.6286C0.729151 66.8576 0 66.1285 0 65.229L0 47.4799Z" fill="#C4C4C4"/>
<path d="M41.7854 47.4799C41.7854 46.0272 43.5434 45.3014 44.5683 46.331L62.2349 64.0801C63.2572 65.1071 62.5297 66.8576 61.0806 66.8576L43.414 66.8576C42.5146 66.8576 41.7854 66.1285 41.7854 65.229V47.4799Z" fill="#C4C4C4"/>
</svg>
