<svg width="65" height="65" viewBox="0 0 65 65" fill="none" xmlns="http://www.w3.org/2000/svg">
<rect y="1.70703" width="21.6668" height="14.0997" rx="2.89772" fill="#6FCF97"/>
<rect x="43.3333" y="1.70703" width="21.6668" height="14.0997" rx="2.89772" fill="#6FCF97"/>
<rect y="47.7168" width="21.6668" height="14.0997" rx="2.89772" fill="#6FCF97"/>
<rect x="43.3333" y="47.7168" width="21.6668" height="14.0997" rx="2.89772" fill="#6FCF97"/>
<rect x="21.6672" y="24.7119" width="21.6668" height="14.0997" rx="2.89772" fill="#6FCF97"/>
<path d="M56.2463 39.6591C52.0623 39.6591 48.6782 36.2842 48.6782 32.1306C48.6782 27.977 52.0623 24.6021 56.2463 24.6021C60.4303 24.6021 63.8144 27.977 63.8144 32.1306C63.8144 36.2842 60.4303 39.6591 56.2463 39.6591Z" fill="#F8F8F8" stroke="#666666" stroke-width="1.93181"/>
<path d="M8.75237 39.6591C4.56837 39.6591 1.18426 36.2842 1.18426 32.1306C1.18426 27.977 4.56838 24.6021 8.75237 24.6021C12.9364 24.6021 16.3205 27.977 16.3205 32.1306C16.3205 36.2842 12.9364 39.6591 8.75237 39.6591Z" fill="#F8F8F8" stroke="#666666" stroke-width="1.93181"/>
<path d="M32.4994 63.2958C28.3154 63.2958 24.9313 59.9209 24.9313 55.7673C24.9313 51.6137 28.3154 48.2389 32.4994 48.2389C36.6834 48.2389 40.0675 51.6137 40.0675 55.7673C40.0675 59.9209 36.6834 63.2958 32.4994 63.2958Z" fill="#F8F8F8" stroke="#666666" stroke-width="1.93181"/>
<path d="M32.4994 16.0228C28.3154 16.0228 24.9313 12.648 24.9313 8.49437C24.9313 4.34075 28.3154 0.965906 32.4994 0.965907C36.6834 0.965907 40.0675 4.34075 40.0675 8.49437C40.0675 12.648 36.6834 16.0228 32.4994 16.0228Z" fill="#F8F8F8" stroke="#666666" stroke-width="1.93181"/>
<ellipse cx="56.2143" cy="32.1221" rx="5.25" ry="5.34043" transform="rotate(90 56.2143 32.1221)" fill="#09539D"/>
<ellipse cx="56.2143" cy="32.1221" rx="5.25" ry="5.34043" transform="rotate(90 56.2143 32.1221)" fill="#09539D"/>
<ellipse cx="56.2143" cy="32.1221" rx="5.25" ry="5.34043" transform="rotate(90 56.2143 32.1221)" fill="#5795D3"/>
<path d="M8.81094 37.3721C5.8615 37.3721 3.47051 35.0216 3.47051 32.1221C3.47051 29.2226 5.8615 26.8721 8.81094 26.8721C11.7604 26.8721 14.1514 29.2226 14.1514 32.1221C14.1514 35.0216 11.7604 37.3721 8.81094 37.3721Z" fill="#09539D"/>
<path d="M8.81094 37.3721C5.8615 37.3721 3.47051 35.0216 3.47051 32.1221C3.47051 29.2226 5.8615 26.8721 8.81094 26.8721C11.7604 26.8721 14.1514 29.2226 14.1514 32.1221C14.1514 35.0216 11.7604 37.3721 8.81094 37.3721Z" fill="#09539D"/>
<path d="M8.81094 37.3721C5.8615 37.3721 3.47051 35.0216 3.47051 32.1221C3.47051 29.2226 5.8615 26.8721 8.81094 26.8721C11.7604 26.8721 14.1514 29.2226 14.1514 32.1221C14.1514 35.0216 11.7604 37.3721 8.81094 37.3721Z" fill="#5795D3"/>
<path d="M32.5131 61.0444C29.5636 61.0444 27.1727 58.6939 27.1727 55.7944C27.1727 52.8949 29.5636 50.5444 32.5131 50.5444C35.4625 50.5444 37.8535 52.8949 37.8535 55.7944C37.8535 58.6939 35.4625 61.0444 32.5131 61.0444Z" fill="#09539D"/>
<path d="M32.5131 61.0444C29.5636 61.0444 27.1727 58.6939 27.1727 55.7944C27.1727 52.8949 29.5636 50.5444 32.5131 50.5444C35.4625 50.5444 37.8535 52.8949 37.8535 55.7944C37.8535 58.6939 35.4625 61.0444 32.5131 61.0444Z" fill="#09539D"/>
<path d="M32.5131 61.0444C29.5636 61.0444 27.1727 58.6939 27.1727 55.7944C27.1727 52.8949 29.5636 50.5444 32.5131 50.5444C35.4625 50.5444 37.8535 52.8949 37.8535 55.7944C37.8535 58.6939 35.4625 61.0444 32.5131 61.0444Z" fill="#5795D3"/>
<ellipse cx="32.4672" cy="8.46582" rx="5.25" ry="5.34043" transform="rotate(90 32.4672 8.46582)" fill="#09539D"/>
<ellipse cx="32.4672" cy="8.46582" rx="5.25" ry="5.34043" transform="rotate(90 32.4672 8.46582)" fill="#09539D"/>
<ellipse cx="32.4672" cy="8.46582" rx="5.25" ry="5.34043" transform="rotate(90 32.4672 8.46582)" fill="#5795D3"/>
</svg>
