<svg width="66" height="65" viewBox="0 0 66 65" fill="none" xmlns="http://www.w3.org/2000/svg">
<ellipse cx="58.1363" cy="32.5004" rx="7.13415" ry="7.16744" transform="rotate(90 58.1363 32.5004)" fill="#09539D"/>
<ellipse cx="58.1363" cy="32.5004" rx="7.13415" ry="7.16744" transform="rotate(90 58.1363 32.5004)" fill="#09539D"/>
<ellipse cx="58.1363" cy="32.5004" rx="7.13415" ry="7.16744" transform="rotate(90 58.1363 32.5004)" fill="#5795D3"/>
<ellipse cx="7.16728" cy="32.5004" rx="7.13415" ry="7.16744" transform="rotate(90 7.16728 32.5004)" fill="#09539D"/>
<ellipse cx="7.16728" cy="32.5004" rx="7.13415" ry="7.16744" transform="rotate(90 7.16728 32.5004)" fill="#09539D"/>
<ellipse cx="7.16728" cy="32.5004" rx="7.13415" ry="7.16744" transform="rotate(90 7.16728 32.5004)" fill="#5795D3"/>
<ellipse cx="32.6521" cy="57.8661" rx="7.13415" ry="7.16744" transform="rotate(90 32.6521 57.8661)" fill="#09539D"/>
<ellipse cx="32.6521" cy="57.8661" rx="7.13415" ry="7.16744" transform="rotate(90 32.6521 57.8661)" fill="#09539D"/>
<ellipse cx="32.6521" cy="57.8661" rx="7.13415" ry="7.16744" transform="rotate(90 32.6521 57.8661)" fill="#5795D3"/>
<ellipse cx="32.6521" cy="7.13463" rx="7.13415" ry="7.16744" transform="rotate(90 32.6521 7.13463)" fill="#09539D"/>
<ellipse cx="32.6521" cy="7.13463" rx="7.13415" ry="7.16744" transform="rotate(90 32.6521 7.13463)" fill="#09539D"/>
<ellipse cx="32.6521" cy="7.13463" rx="7.13415" ry="7.16744" transform="rotate(90 32.6521 7.13463)" fill="#5795D3"/>
</svg>
